<svg width="19" height="19" viewBox="0 0 19 19" fill="none" xmlns="http://www.w3.org/2000/svg">
<path d="M14.88 17C6.76 17 2 12.24 2 4.12C2 3.50144 2.50144 3 3.12 3L6.5401 3C6.81624 3 7.03965 3.22363 7.05567 3.4993C7.10945 4.42524 7.30258 5.63644 7.63515 6.44462C7.7454 6.71252 7.6665 7.04206 7.41497 7.18579L5.92009 8.04C5.92009 10.56 8.44009 13.08 11.2401 13.08L11.8433 11.6725C11.9664 11.3852 12.325 11.2747 12.6159 11.3892C13.4231 11.7069 14.5976 11.8919 15.5007 11.9444C15.7764 11.9604 16 12.1839 16 12.46V15.88C16 16.4986 15.4986 17 14.88 17Z" stroke="#F2F2F2" stroke-width="1.2" stroke-linecap="round" stroke-linejoin="round"/>
</svg>
