<svg width="159" height="340" viewBox="0 0 159 340" fill="none" xmlns="http://www.w3.org/2000/svg">
<path d="M70 129.534C87.9759 119.693 121.313 140.888 134.522 152.577C142.132 159.311 150.612 167.915 150.996 180.069C151.341 191.027 130.653 190.906 125.501 190.906C109.721 190.906 94.5917 185.325 78.8742 184.803C67.217 184.415 75.1049 198.769 78.531 205.963C85.5826 220.771 101.394 231.563 113.979 239.216C114.972 239.82 129.077 246.972 126.187 248.057C119.322 250.633 104.52 249.098 105.399 260.605C105.742 265.093 107.4 268.867 109.027 272.925C113.429 283.905 117.911 294.832 122.167 305.892C123.321 308.89 127.629 315.593 122.853 316.387C107.512 318.936 88.4751 316.312 86.4737 340" stroke="#CAFC92" stroke-width="2" stroke-linecap="round"/>
<g clip-path="url(#clip0_694_37)">
<path d="M52.2499 34.2749C52.5816 32.2288 54.7133 31.0076 56.6462 31.7563L59.848 32.9966C61.4769 33.6275 63.3138 32.8626 64.0134 31.262L65.3886 28.1158C66.2188 26.2165 68.5872 25.5638 70.2732 26.7697L73.0659 28.7672C74.4868 29.7834 76.4561 29.4994 77.5319 28.123L79.6463 25.4177C80.9227 23.7845 83.3791 23.7413 84.7122 25.3286L86.9204 27.9578C88.0439 29.2955 90.022 29.5102 91.4063 28.4445L94.127 26.35C95.7695 25.0856 98.1594 25.6546 99.0559 27.5236L100.541 30.6194C101.296 32.1945 103.159 32.8943 104.765 32.2064L107.921 30.8543C109.826 30.0381 112 31.1836 112.403 33.2167L113.072 36.5846C113.412 38.2981 115.042 39.4391 116.768 39.1722L120.161 38.6475C122.21 38.3308 124.03 39.9808 123.915 42.0504L123.725 45.4787C123.628 47.2229 124.923 48.7335 126.662 48.9043L130.079 49.2399C132.142 49.4426 133.495 51.4934 132.869 53.4694L131.832 56.7428C131.305 58.4081 132.183 60.1933 133.825 60.7911L137.051 61.966C138.999 62.6753 139.799 64.9981 138.701 66.7564L136.883 69.6691C135.958 71.1509 136.365 73.0986 137.806 74.0858L140.639 76.0261C142.349 77.1975 142.547 79.6463 141.046 81.0764L138.561 83.4454C137.296 84.6507 137.206 86.6384 138.357 87.9529L140.618 90.5368C141.983 92.0967 141.565 94.5176 139.756 95.5297L136.76 97.2061C135.235 98.0591 134.654 99.9619 135.441 101.521L136.989 104.586C137.923 106.437 136.916 108.678 134.912 109.208L131.593 110.087C129.904 110.534 128.868 112.232 129.243 113.938L129.979 117.292C130.424 119.316 128.892 121.237 126.819 121.252L123.385 121.278C121.639 121.291 120.212 122.678 120.151 124.424L120.031 127.855C119.958 129.927 117.996 131.406 115.985 130.905L112.653 130.076C110.957 129.654 109.231 130.643 108.737 132.319L107.767 135.612C107.182 137.601 104.914 138.545 103.09 137.56L100.069 135.929C98.5319 135.098 96.6137 135.627 95.719 137.127L93.9603 140.076C92.8986 141.857 90.4671 142.207 88.9455 140.8L86.4252 138.468C85.1429 137.282 83.1535 137.317 81.9137 138.547L79.4769 140.966C78.0058 142.427 75.5634 142.162 74.4398 140.42L72.5785 137.534C71.6315 136.066 69.6959 135.606 68.189 136.489L65.2272 138.226C63.4392 139.275 61.1394 138.411 60.4843 136.444L59.399 133.187C58.8468 131.529 57.0866 130.602 55.4073 131.083L52.1066 132.029C50.114 132.6 48.1013 131.191 47.9558 129.123L47.7148 125.698C47.5921 123.955 46.1179 122.619 44.3717 122.668L40.9395 122.763C38.8674 122.82 37.2684 120.955 37.6417 118.916L38.26 115.539C38.5746 113.821 37.479 112.16 35.7756 111.772L32.4275 111.011C30.4063 110.551 29.3213 108.347 30.1899 106.465L31.6287 103.348C32.3607 101.761 31.7127 99.8802 30.1591 99.0814L27.1055 97.5114C25.2621 96.5636 24.7594 94.1588 26.0687 92.5519L28.2376 89.8901C29.3411 88.5359 29.1813 86.5526 27.8752 85.3925L25.3079 83.1124C23.7581 81.736 23.8692 79.2817 25.5371 78.0509L28.2998 76.0121C29.7054 74.9749 30.0438 73.0141 29.0672 71.5657L27.1477 68.7188C25.9889 67.0002 26.7069 64.6507 28.6284 63.8733L31.8114 62.5857C33.4308 61.9305 34.2462 60.1155 33.6605 58.4698L32.5092 55.2349C31.8143 53.2821 33.0939 51.185 35.1484 50.9099L38.5516 50.4543C40.2831 50.2224 41.5242 48.6673 41.3662 46.9275L41.0556 43.508C40.8681 41.4437 42.6292 39.7307 44.6875 39.9752L48.0971 40.3802C49.8318 40.5863 51.4207 39.3886 51.7003 37.6643L52.2499 34.2749Z" fill="white"/>
<path d="M54.9742 39.0308C55.306 36.9847 57.4377 35.7635 59.3705 36.5122L61.685 37.4088C63.314 38.0397 65.1508 37.2749 65.8505 35.6742L66.8446 33.3999C67.6747 31.5006 70.0432 30.8479 71.7291 32.0537L73.748 33.4977C75.1688 34.514 77.1382 34.2299 78.2139 32.8535L79.7424 30.8979C81.0188 29.2647 83.4752 29.2215 84.8083 30.8088L86.4046 32.7094C87.528 34.0471 89.5062 34.2617 90.8904 33.1961L92.8572 31.6821C94.4997 30.4176 96.8896 30.9867 97.7861 32.8556L98.8595 35.0935C99.6151 36.6686 101.478 37.3684 103.083 36.6805L105.365 35.7031C107.27 34.8869 109.444 36.0324 109.847 38.0655L110.33 40.5001C110.67 42.2136 112.3 43.3546 114.027 43.0877L116.48 42.7084C118.528 42.3916 120.348 44.0416 120.234 46.1113L120.096 48.5895C119.999 50.3337 121.295 51.8443 123.033 52.0151L125.503 52.2577C127.566 52.4604 128.919 54.5112 128.293 56.4872L127.543 58.8535C127.016 60.5188 127.895 62.304 129.536 62.9018L131.868 63.7511C133.816 64.4604 134.616 66.7832 133.519 68.5415L132.204 70.647C131.279 72.1289 131.686 74.0765 133.128 75.0637L135.175 76.4663C136.885 77.6377 137.083 80.0865 135.582 81.5166L133.786 83.2291C132.521 84.4344 132.431 86.4221 133.582 87.7367L135.216 89.6045C136.581 91.1644 136.163 93.5853 134.354 94.5974L132.188 95.8092C130.664 96.6622 130.082 98.565 130.87 100.124L131.988 102.34C132.923 104.19 131.916 106.431 129.912 106.962L127.513 107.597C125.824 108.044 124.788 109.742 125.162 111.449L125.695 113.873C126.14 115.897 124.607 117.818 122.534 117.833L120.052 117.851C118.306 117.864 116.879 119.252 116.818 120.998L116.731 123.478C116.658 125.55 114.696 127.028 112.685 126.528L110.276 125.928C108.581 125.507 106.855 126.496 106.361 128.171L105.66 130.552C105.074 132.541 102.806 133.485 100.983 132.5L98.7988 131.321C97.2618 130.49 95.3435 131.019 94.4488 132.519L93.1775 134.651C92.1158 136.431 89.6842 136.782 88.1627 135.375L86.3408 133.689C85.0585 132.503 83.0691 132.538 81.8293 133.768L80.0678 135.517C78.5967 136.977 76.1543 136.712 75.0307 134.97L73.6852 132.885C72.7382 131.417 70.8026 130.956 69.2957 131.84L67.1547 133.095C65.3667 134.144 63.0669 133.28 62.4117 131.313L61.6272 128.958C61.0751 127.301 59.3149 126.373 57.6356 126.855L55.2495 127.538C53.2569 128.109 51.2443 126.7 51.0988 124.633L50.9245 122.157C50.8019 120.414 49.3277 119.078 47.5815 119.126L45.1004 119.195C43.0283 119.253 41.4293 117.388 41.8026 115.349L42.2495 112.907C42.5641 111.189 41.4686 109.528 39.7651 109.141L37.3449 108.59C35.3236 108.131 34.2387 105.926 35.1073 104.044L36.1474 101.791C36.8794 100.205 36.2313 98.3234 34.6778 97.5246L32.4704 96.3897C30.627 95.4419 30.1242 93.0371 31.4336 91.4302L33.0015 89.506C34.1049 88.1518 33.9451 86.1685 32.639 85.0085L30.7832 83.3602C29.2334 81.9838 29.3445 79.5295 31.0123 78.2987L33.0095 76.8249C34.4151 75.7877 34.7535 73.8269 33.7769 72.3785L32.3893 70.3205C31.2305 68.6019 31.9484 66.2524 33.87 65.475L36.1709 64.5442C37.7903 63.8891 38.6057 62.0741 38.02 60.4283L37.1878 58.0899C36.4928 56.1371 37.7725 54.04 39.827 53.7649L42.2871 53.4355C44.0185 53.2037 45.2597 51.6485 45.1016 49.9088L44.8771 47.4369C44.6896 45.3726 46.4507 43.6596 48.509 43.9041L50.9737 44.1969C52.7084 44.4029 54.2973 43.2053 54.5769 41.4809L54.9742 39.0308Z" fill="#CAFC92"/>
<path d="M46.1473 95.8928C46.2281 94.5328 46.8969 93.5979 48.1537 93.088C49.1335 92.6905 50.0836 92.7392 51.0038 93.2341C51.909 93.7227 52.6036 94.5635 53.0875 95.7563C53.9171 97.8012 53.6032 99.5038 52.1457 100.864L50.5934 99.652C51.6417 98.8422 51.8979 97.777 51.3621 96.4563C51.0812 95.764 50.7161 95.292 50.2666 95.0402C49.8129 94.7778 49.3251 94.7524 48.8032 94.9641C48.292 95.1715 47.9607 95.5168 47.8094 95.9999C47.6581 96.483 47.7121 97.044 47.9713 97.6831L48.5222 99.041L46.8607 99.7151L46.4589 98.7246C46.204 98.0962 45.8614 97.6646 45.4313 97.4298C45.0011 97.195 44.5464 97.1748 44.0671 97.3693C43.5772 97.568 43.2586 97.8833 43.1113 98.3152C42.964 98.747 43.0114 99.2612 43.2533 99.8576C43.7027 100.965 44.5111 101.506 45.6784 101.479L45.403 103.414C43.5542 103.32 42.2625 102.368 41.5279 100.558C41.0872 99.4712 41.0246 98.4609 41.3402 97.5267C41.6495 96.6074 42.278 95.9555 43.2259 95.5709C44.2803 95.1432 45.2541 95.2504 46.1473 95.8928Z" fill="#4D9300"/>
<path d="M50.173 80.7906L50.342 82.9217L47.9854 83.956L48.3915 89.0775L50.8816 89.7276L51.0519 91.8759L38.6752 88.4643L38.4872 86.0926L50.173 80.7906ZM40.9014 87.0945L46.4836 88.5716L46.1811 84.7562L40.9014 87.0945Z" fill="#4D9300"/>
<path d="M43.7148 76.3883L44.3105 73.8718C44.5674 72.7869 45.1216 71.9673 45.9733 71.413C46.825 70.8587 47.771 70.7047 48.8111 70.9509C49.8513 71.1972 50.6278 71.7589 51.1406 72.6363C51.6534 73.5136 51.7814 74.4947 51.5245 75.5796L50.4721 80.0254L38.7283 77.2453L40.4361 70.0313L42.2816 70.4682L41.0305 75.7529L43.7148 76.3883ZM49.1169 77.6672L49.7126 75.1507C49.8397 74.6138 49.7822 74.1336 49.5399 73.7101C49.2864 73.284 48.8913 73.0073 48.3544 72.8803C47.8176 72.7532 47.3459 72.8246 46.9395 73.0945C46.5219 73.3618 46.2495 73.7639 46.1224 74.3007L45.5267 76.8173L49.1169 77.6672Z" fill="#4D9300"/>
<path d="M56.8278 61.3861C57.1825 63.0556 56.8841 64.6228 55.9325 66.088C54.9808 67.5531 53.6672 68.4678 51.9915 68.8322C50.3124 69.1806 48.7403 68.879 47.2752 67.9274C45.8101 66.9758 44.9001 65.6653 44.5454 63.9958C44.1873 62.3105 44.4841 60.7353 45.4357 59.2701C46.3873 57.805 47.7027 56.8982 49.3818 56.5498C51.0575 56.1854 52.6279 56.4791 54.093 57.4307C55.5581 58.3823 56.4697 59.7008 56.8278 61.3861ZM51.6244 66.9285C52.7658 66.6694 53.662 66.0386 54.3131 65.0362C54.9705 64.0241 55.1792 62.9536 54.9394 61.8247C54.6962 60.68 54.054 59.7695 53.013 59.0934C51.972 58.4172 50.884 58.2039 49.7488 58.4534C48.6103 58.687 47.7124 59.3098 47.055 60.3219C46.3977 61.334 46.1906 62.4124 46.4338 63.5572C46.6737 64.6861 47.3141 65.5886 48.3551 66.2647C49.3865 66.9346 50.4762 67.1559 51.6244 66.9285Z" fill="#4D9300"/>
<path d="M52.0896 51.2453L59.0415 45.8619L60.2027 47.3613L57.5173 49.4408L63.7452 57.4832L62.1776 58.6971L55.9497 50.6547L53.2507 52.7447L52.0896 51.2453Z" fill="#4D9300"/>
<path d="M76.2223 51.5907L74.3553 52.258L71.5992 44.5465L68.9978 54.1727L67.5367 54.6949L63.4751 43.3305L65.3421 42.6633L68.0982 50.3748L70.6996 40.7486L72.1607 40.2264L76.2223 51.5907Z" fill="#4D9300"/>
<path d="M87.9693 39.2724L90.0886 39.3475L89.6614 51.4083L87.68 51.3381L87.9845 42.7405L84.0998 48.6753L83.8586 48.6668L80.4041 42.4548L80.0989 51.0696L78.1175 50.9994L78.5447 38.9386L80.6812 39.0143L84.103 45.1735L87.9693 39.2724Z" fill="#4D9300"/>
<path d="M96.6377 54.453C94.9781 53.7158 93.8447 52.5584 93.2375 50.9807C92.6396 49.3821 92.6976 47.7792 93.4115 46.1721C94.13 44.5544 95.2781 43.442 96.8558 42.8349C98.4276 42.2125 100.049 42.2722 101.719 43.0141C102.717 43.4573 103.531 44.1019 104.161 44.9479C104.802 45.7985 105.179 46.7332 105.293 47.7519L103.311 47.9659C103.259 47.2891 103.02 46.6671 102.593 46.1C102.181 45.5271 101.628 45.0867 100.935 44.7788C99.7689 44.2609 98.6474 44.2092 97.5704 44.6237C96.519 45.0371 95.7367 45.8215 95.2234 46.9769C94.7102 48.1323 94.6527 49.2387 95.0509 50.2959C95.4654 51.3729 96.2556 52.1704 97.4216 52.6883C98.1148 52.9963 98.8151 53.1186 99.5222 53.0555C100.234 52.9818 100.853 52.7348 101.379 52.3146L102.556 53.9126C101.75 54.5102 100.806 54.8646 99.7257 54.9757C98.6859 55.0798 97.6566 54.9056 96.6377 54.453Z" fill="#4D9300"/>
<path d="M112.948 50.7118L116.462 54.0221L108.186 62.806L106.743 61.4464L109.758 58.2466L108.365 56.9343L103.229 58.1361L101.598 56.5992L106.965 55.3783C106.545 54.6509 106.379 53.8712 106.468 53.0392C106.565 52.1988 106.897 51.4775 107.465 50.8751C108.206 50.0888 109.104 49.6799 110.16 49.6484C111.233 49.6165 112.162 49.9709 112.948 50.7118ZM108.905 55.0034L110.975 56.9541L113.742 54.0177L111.671 52.067C111.287 51.7045 110.826 51.5393 110.291 51.5715C109.755 51.6037 109.294 51.8248 108.908 52.2347C108.522 52.6446 108.328 53.1179 108.328 53.6546C108.328 54.1912 108.52 54.6408 108.905 55.0034Z" fill="#4D9300"/>
<path d="M116.625 76.8603C115.093 76.1065 114.046 74.9026 113.484 73.2487C112.921 71.5948 113.015 69.9968 113.765 68.4546C114.529 66.9197 115.739 65.8709 117.392 65.3081C119.046 64.7454 120.639 64.8409 122.17 65.5947C123.716 66.3557 124.77 67.5632 125.333 69.2171C125.896 70.871 125.795 72.4654 125.03 74.0004C124.28 75.5425 123.078 76.5949 121.424 77.1576C119.77 77.7204 118.17 77.6212 116.625 76.8603ZM115.487 69.3435C114.985 70.4007 114.927 71.4951 115.312 72.6267C115.7 73.7693 116.412 74.5954 117.448 75.1051C118.498 75.622 119.61 75.6805 120.786 75.2807C121.961 74.8808 122.801 74.1578 123.307 73.1115C123.828 72.0724 123.894 70.9815 123.505 69.839C123.116 68.6965 122.397 67.8668 121.347 67.3499C120.312 66.8402 119.206 66.7853 118.031 67.1851C116.867 67.5813 116.019 68.3007 115.487 69.3435Z" fill="#4D9300"/>
<path d="M121.19 89.3888L114.291 93.4168L114.658 91.0836L121.069 87.2754L115.398 86.3831L115.706 84.4245L127.627 86.3003L127.319 88.2588L121.972 87.4174L126.606 92.7891L126.239 95.1223L121.19 89.3888Z" fill="#4D9300"/>
<path d="M109.413 103.237L110.387 101.334L112.936 101.689L115.276 97.1152L113.496 95.256L114.478 93.3374L123.227 102.733L122.144 104.851L109.413 103.237ZM120.614 102.732L116.635 98.5465L114.892 101.954L120.614 102.732Z" fill="#4D9300"/>
<path d="M108.869 112.909L112.738 116.841L111.325 118.232L102.861 109.629L104.274 108.239L107.527 111.545C107.859 110.686 108.357 109.93 109.02 109.277C109.889 108.422 110.823 107.971 111.823 107.922C112.831 107.881 113.726 108.258 114.508 109.053L117.531 112.125L116.118 113.516L113.24 110.591C112.805 110.149 112.327 109.934 111.807 109.946C111.287 109.958 110.793 110.193 110.326 110.653C109.638 111.33 109.152 112.082 108.869 112.909Z" fill="#4D9300"/>
<path d="M101.795 116.249L100.275 113.367L95.548 115.861L94.663 114.184L101.143 110.765L106.775 121.438L100.371 124.817L99.486 123.14L104.137 120.686L102.672 117.911L98.4029 120.164L97.526 118.502L101.795 116.249Z" fill="#4D9300"/>
<path d="M87.954 115.516C89.743 115.204 91.3289 115.534 92.7117 116.507C94.0985 117.502 94.9428 118.865 95.2447 120.598C95.5486 122.341 95.2144 123.905 94.242 125.287C93.283 126.68 91.9033 127.533 90.1029 127.846C89.0272 128.034 87.9921 127.952 86.9974 127.6C85.9915 127.25 85.1577 126.684 84.4963 125.901L86.023 124.62C86.4427 125.153 86.9878 125.537 87.6585 125.77C88.3198 126.016 89.0241 126.074 89.7714 125.944C91.0282 125.725 91.9886 125.144 92.6524 124.199C93.2956 123.271 93.5086 122.184 93.2915 120.938C93.0745 119.693 92.5062 118.742 91.5868 118.085C90.6428 117.421 89.5423 117.199 88.2855 117.418C87.5382 117.548 86.8884 117.836 86.3361 118.283C85.7859 118.74 85.4092 119.29 85.2061 119.932L83.3389 119.26C83.6758 118.315 84.2621 117.495 85.0979 116.801C85.9036 116.135 86.8556 115.707 87.954 115.516Z" fill="#4D9300"/>
<path d="M81.2243 128.401L72.5241 127.129L72.7984 125.253L76.159 125.744L77.6301 115.679L79.5919 115.966L78.1209 126.031L81.4986 126.525L81.2243 128.401Z" fill="#4D9300"/>
<path d="M63.9172 117.481C63.5563 117.007 63.3459 116.482 63.286 115.908C63.2212 115.344 63.321 114.781 63.5853 114.219C64.0063 113.325 64.6734 112.731 65.5868 112.436C66.5002 112.142 67.4144 112.211 68.3296 112.641L73.0092 114.844L67.8696 125.763L63.5331 123.722C62.6388 123.301 62.0219 122.655 61.6824 121.784C61.3326 120.908 61.3584 120.043 61.7597 119.191C62.2003 118.255 62.9194 117.685 63.9172 117.481ZM64.3261 122.037L66.8687 123.234L68.2197 120.364L65.677 119.167C65.2819 118.981 64.8855 118.96 64.4878 119.103C64.0853 119.256 63.7886 119.536 63.5977 119.941C63.4068 120.347 63.3829 120.749 63.526 121.146C63.6642 121.554 63.9309 121.851 64.3261 122.037ZM70.4224 115.684L67.5366 114.326C67.1206 114.13 66.7037 114.112 66.2859 114.271C65.8527 114.435 65.5358 114.731 65.3351 115.157C65.1344 115.584 65.1112 116.011 65.2653 116.439C65.4041 116.873 65.6815 117.188 66.0975 117.383L68.9833 118.742L70.4224 115.684Z" fill="#4D9300"/>
<path d="M58.9681 112.663L61.1391 110.234L57.1537 106.673L58.4172 105.258L63.8812 110.14L55.8404 119.14L50.4407 114.315L51.7043 112.901L55.6255 116.405L57.7161 114.065L54.1163 110.848L55.3683 109.447L58.9681 112.663Z" fill="#4D9300"/>
<path d="M73.5755 81.0891C75.4964 82.8666 76.5131 84.8651 75.8551 85.5444C75.1972 86.2236 73.1071 85.3311 71.19 83.5509C69.273 81.7707 68.2524 79.7749 68.9104 79.0956C69.5684 78.4164 71.645 79.2899 73.5755 81.0891Z" fill="#4D9300"/>
<path d="M81.6874 72.6816C83.6045 74.4618 84.625 76.4577 83.9659 77.1434C83.3069 77.8291 81.2179 76.9302 79.3008 75.1499C77.3837 73.3697 76.3632 71.3739 77.0212 70.6947C77.6792 70.0154 79.759 70.9095 81.6874 72.6816Z" fill="#4D9300"/>
<path d="M89.9046 94.3022C85.4265 97.4882 79.0586 97.8816 73.0047 95.1873C72.8058 95.0713 72.657 94.8857 72.5871 94.6663C72.5172 94.447 72.5312 94.2095 72.6262 93.9999C72.7213 93.7902 72.8908 93.6233 73.1019 93.5314C73.3129 93.4395 73.5506 93.4291 73.7689 93.5023C79.9967 96.2727 86.5275 95.4666 90.4239 91.4391C94.218 87.5243 94.7568 81.2236 91.7944 75.3996C91.7383 75.2896 91.7044 75.1697 91.6946 75.0467C91.6848 74.9236 91.6994 74.7998 91.7375 74.6824C91.7755 74.565 91.8363 74.4562 91.9164 74.3623C91.9965 74.2684 92.0944 74.1912 92.2043 74.135C92.3142 74.0789 92.4342 74.045 92.5572 74.0352C92.6803 74.0255 92.804 74.04 92.9215 74.0781C93.0389 74.1161 93.1477 74.177 93.2416 74.2571C93.3355 74.3372 93.4127 74.435 93.4689 74.5449C96.7964 81.0907 96.1306 88.2235 91.7776 92.7242C91.2027 93.3063 90.5757 93.8345 89.9046 94.3022Z" fill="#4D9300"/>
</g>
<defs>
<clipPath id="clip0_694_37">
<rect width="121.919" height="121.919" fill="white" transform="translate(0 60.605) rotate(-29.8078)"/>
</clipPath>
</defs>
</svg>
