<svg width="262" height="417" viewBox="0 0 262 417" fill="none" xmlns="http://www.w3.org/2000/svg">
<path d="M102 206.534C119.976 196.693 153.313 217.888 166.522 229.577C174.132 236.311 182.612 244.915 182.996 257.069C183.341 268.027 162.653 267.906 157.501 267.906C141.721 267.906 126.592 262.325 110.874 261.803C99.217 261.415 107.105 275.769 110.531 282.963C117.583 297.771 133.394 308.563 145.979 316.216C146.972 316.82 161.077 323.972 158.187 325.057C151.322 327.633 136.52 326.098 137.399 337.605C137.742 342.093 139.4 345.867 141.027 349.925C145.429 360.905 149.911 371.832 154.167 382.892C155.321 385.89 159.629 392.593 154.853 393.387C139.512 395.936 120.475 393.312 118.474 417" stroke="#CAFC92" stroke-width="2" stroke-linecap="round"/>
<g clip-path="url(#clip0_692_35)">
<path d="M82.0965 53.8532C82.6178 50.6383 85.9671 48.7195 89.0041 49.8959L94.0348 51.8445C96.5942 52.836 99.4803 51.6341 100.58 49.1191L102.74 44.1758C104.045 41.1916 107.766 40.166 110.415 42.0607L114.803 45.1993C117.036 46.796 120.13 46.3497 121.82 44.1871L125.142 39.9364C127.148 37.3704 131.007 37.3025 133.102 39.7964L136.572 43.9276C138.337 46.0294 141.445 46.3666 143.62 44.6923L147.895 41.4014C150.475 39.4147 154.231 40.3088 155.639 43.2453L157.972 48.1095C159.159 50.5843 162.086 51.6839 164.609 50.603L169.568 48.4786C172.562 47.1961 175.977 48.996 176.611 52.1905L177.661 57.4822C178.195 60.1745 180.756 61.9673 183.469 61.5478L188.8 60.7234C192.019 60.2258 194.879 62.8183 194.699 66.0701L194.4 71.4568C194.248 74.1973 196.283 76.5707 199.014 76.8391L204.383 77.3665C207.625 77.6849 209.75 80.9071 208.767 84.012L207.138 89.1551C206.309 91.7718 207.69 94.5767 210.269 95.5159L215.338 97.362C218.398 98.4764 219.655 102.126 217.931 104.889L215.074 109.465C213.62 111.794 214.26 114.854 216.525 116.405L220.976 119.454C223.663 121.294 223.973 125.142 221.615 127.389L217.71 131.111C215.723 133.005 215.582 136.128 217.389 138.193L220.942 142.253C223.087 144.704 222.43 148.508 219.588 150.098L214.88 152.732C212.485 154.072 211.571 157.062 212.808 159.512L215.24 164.328C216.708 167.235 215.126 170.756 211.977 171.59L206.762 172.97C204.109 173.672 202.48 176.341 203.069 179.022L204.227 184.291C204.926 187.472 202.518 190.489 199.261 190.514L193.866 190.554C191.122 190.574 188.881 192.754 188.784 195.497L188.595 200.889C188.481 204.143 185.398 206.467 182.238 205.68L177.003 204.378C174.339 203.715 171.626 205.269 170.851 207.902L169.327 213.077C168.407 216.201 164.843 217.685 161.978 216.137L157.231 213.573C154.816 212.269 151.802 213.1 150.396 215.457L147.633 220.091C145.965 222.888 142.144 223.439 139.754 221.227L135.793 217.563C133.779 215.699 130.653 215.754 128.705 217.688L124.876 221.489C122.565 223.783 118.727 223.367 116.962 220.63L114.037 216.097C112.549 213.79 109.508 213.066 107.14 214.455L102.487 217.184C99.6774 218.831 96.064 217.474 95.0345 214.384L93.3293 209.266C92.4618 206.661 89.6961 205.204 87.0576 205.96L81.8714 207.446C78.7405 208.343 75.5782 206.13 75.3496 202.881L74.9708 197.499C74.7781 194.761 72.4618 192.661 69.7182 192.738L64.3253 192.887C61.0697 192.978 58.5573 190.047 59.1438 186.844L60.1153 181.537C60.6095 178.837 58.8882 176.227 56.2118 175.619L50.9511 174.422C47.7753 173.7 46.0706 170.237 47.4354 167.28L49.6961 162.382C50.8462 159.889 49.828 156.934 47.387 155.679L42.5891 153.212C39.6927 151.722 38.9028 147.944 40.9601 145.419L44.368 141.237C46.1018 139.109 45.8506 135.993 43.7984 134.17L39.7647 130.588C37.3297 128.425 37.5042 124.569 40.1248 122.635L44.4657 119.432C46.6742 117.802 47.2059 114.721 45.6714 112.445L42.6554 107.972C40.8347 105.272 41.9628 101.58 44.9819 100.359L49.9831 98.3356C52.5275 97.3062 53.8087 94.4545 52.8884 91.8686L51.0796 86.786C49.9876 83.7176 51.9983 80.4226 55.2263 79.9904L60.5735 79.2745C63.294 78.9102 65.2441 76.4667 64.9958 73.7332L64.5078 68.3604C64.2132 65.1169 66.9802 62.4254 70.2143 62.8096L75.5716 63.4459C78.2972 63.7697 80.7937 61.8879 81.233 59.1785L82.0965 53.8532Z" fill="white"/>
<path d="M86.3768 61.3259C86.8981 58.1111 90.2474 56.1923 93.2844 57.3686L96.921 58.7773C99.4804 59.7687 102.367 58.5669 103.466 56.0519L105.028 52.4785C106.332 49.4943 110.054 48.4687 112.702 50.3634L115.875 52.6322C118.107 54.2289 121.201 53.7826 122.892 51.62L125.293 48.5473C127.299 45.9812 131.158 45.9133 133.253 48.4073L135.761 51.3936C137.526 53.4954 140.634 53.8326 142.809 52.1583L145.899 49.7794C148.48 47.7927 152.235 48.6867 153.644 51.6232L155.33 55.1395C156.517 57.6143 159.444 58.7139 161.967 57.633L165.552 56.0973C168.546 54.8149 171.96 56.6147 172.594 59.8092L173.354 63.6345C173.888 66.3267 176.449 68.1196 179.162 67.7001L183.016 67.1042C186.234 66.6065 189.094 69.199 188.914 72.4509L188.698 76.3447C188.546 79.0853 190.581 81.4587 193.312 81.7271L197.194 82.1083C200.435 82.4267 202.56 85.649 201.577 88.7538L200.399 92.4717C199.57 95.0883 200.951 97.8932 203.53 98.8325L207.195 100.167C210.255 101.281 211.512 104.931 209.787 107.694L207.722 111.002C206.269 113.33 206.909 116.39 209.173 117.942L212.391 120.145C215.078 121.986 215.388 125.834 213.03 128.081L210.207 130.771C208.22 132.665 208.079 135.788 209.886 137.854L212.455 140.788C214.6 143.239 213.943 147.043 211.101 148.633L207.697 150.537C205.302 151.878 204.388 154.867 205.626 157.318L207.383 160.799C208.851 163.706 207.269 167.227 204.121 168.06L200.351 169.058C197.697 169.761 196.069 172.429 196.658 175.11L197.495 178.919C198.193 182.1 195.786 185.117 192.529 185.142L188.629 185.171C185.884 185.191 183.644 187.371 183.547 190.114L183.41 194.011C183.296 197.266 180.214 199.59 177.053 198.803L173.269 197.861C170.605 197.199 167.893 198.753 167.117 201.386L166.015 205.127C165.095 208.251 161.532 209.735 158.666 208.187L155.235 206.334C152.82 205.029 149.806 205.86 148.4 208.217L146.403 211.567C144.734 214.364 140.914 214.915 138.523 212.703L135.661 210.055C133.646 208.191 130.52 208.246 128.572 210.179L125.804 212.927C123.493 215.221 119.655 214.805 117.89 212.068L115.776 208.791C114.288 206.485 111.247 205.761 108.879 207.149L105.515 209.122C102.706 210.77 99.0922 209.412 98.0628 206.322L96.8302 202.622C95.9626 200.018 93.1969 198.56 90.5584 199.316L86.8094 200.391C83.6785 201.288 80.5163 199.074 80.2876 195.825L80.0138 191.935C79.8211 189.197 77.5048 187.098 74.7611 187.174L70.8628 187.282C67.6072 187.372 65.0947 184.442 65.6812 181.238L66.3835 177.402C66.8777 174.702 65.1564 172.092 62.48 171.484L58.6772 170.619C55.5014 169.897 53.7967 166.434 55.1614 163.477L56.7956 159.936C57.9458 157.444 56.9276 154.488 54.4866 153.233L51.0183 151.449C48.1219 149.96 47.332 146.182 49.3893 143.657L51.8527 140.634C53.5865 138.506 53.3354 135.39 51.2832 133.567L48.3673 130.977C45.9322 128.814 46.1068 124.958 48.7274 123.025L51.8653 120.709C54.0738 119.079 54.6055 115.998 53.0711 113.723L50.8909 110.489C49.0701 107.789 50.1982 104.097 53.2174 102.876L56.8326 101.413C59.377 100.384 60.6582 97.532 59.7379 94.9461L58.4303 91.272C57.3384 88.2037 59.3491 84.9086 62.5771 84.4764L66.4425 83.9589C69.163 83.5947 71.1131 81.1511 70.8648 78.4176L70.512 74.5337C70.2174 71.2902 72.9844 68.5987 76.2185 68.9829L80.0911 69.4429C82.8167 69.7667 85.3133 67.8849 85.7526 65.1755L86.3768 61.3259Z" fill="#CAFC92"/>
<path d="M74.4958 149.861C74.6229 147.724 75.6737 146.255 77.6484 145.454C79.1879 144.83 80.6806 144.906 82.1264 145.684C83.5487 146.452 84.6401 147.773 85.4004 149.647C86.7039 152.86 86.2107 155.535 83.9206 157.672L81.4817 155.768C83.1287 154.495 83.5313 152.822 82.6895 150.747C82.2482 149.659 81.6745 148.917 80.9683 148.522C80.2553 148.109 79.4888 148.069 78.6689 148.402C77.8656 148.728 77.3451 149.27 77.1074 150.029C76.8696 150.789 76.9544 151.67 77.3618 152.674L78.2274 154.808L75.6168 155.867L74.9855 154.311C74.5849 153.323 74.0467 152.645 73.3708 152.276C72.695 151.907 71.9805 151.876 71.2275 152.181C70.4577 152.493 69.9571 152.989 69.7257 153.667C69.4942 154.346 69.5686 155.154 69.9488 156.091C70.6549 157.831 71.925 158.68 73.7591 158.638L73.3263 161.678C70.4215 161.531 68.392 160.035 67.2378 157.191C66.5454 155.484 66.447 153.896 66.9429 152.428C67.4288 150.984 68.4164 149.96 69.9057 149.355C71.5624 148.683 73.0925 148.852 74.4958 149.861Z" fill="#4D9300"/>
<path d="M80.9714 126.77L81.2369 130.118L77.5342 131.743L78.1722 139.79L82.0847 140.812L82.3523 144.187L62.9058 138.827L62.6104 135.1L80.9714 126.77ZM66.4036 136.675L75.1745 138.995L74.6992 133.001L66.4036 136.675Z" fill="#4D9300"/>
<path d="M70.7734 120.517L71.7094 116.563C72.113 114.858 72.9838 113.571 74.3221 112.7C75.6603 111.829 77.1466 111.587 78.7809 111.974C80.4152 112.361 81.6352 113.243 82.4409 114.622C83.2467 116 83.4478 117.542 83.0442 119.246L81.3906 126.232L62.9385 121.864L65.6218 110.529L68.5215 111.215L66.5558 119.519L70.7734 120.517ZM79.2613 122.526L80.1973 118.572C80.397 117.729 80.3065 116.974 79.9259 116.309C79.5277 115.639 78.9068 115.205 78.0633 115.005C77.2197 114.805 76.4787 114.918 75.8401 115.342C75.1839 115.762 74.756 116.393 74.5563 117.237L73.6203 121.191L79.2613 122.526Z" fill="#4D9300"/>
<path d="M91.0882 97.6194C91.6456 100.243 91.1767 102.705 89.6815 105.007C88.1863 107.309 86.1222 108.746 83.4893 109.319C80.8511 109.866 78.381 109.392 76.0789 107.897C73.7769 106.402 72.3472 104.343 71.7899 101.72C71.2272 99.0718 71.6935 96.5968 73.1887 94.2948C74.6839 91.9928 76.7506 90.568 79.3888 90.0205C82.0218 89.448 84.4892 89.9094 86.7912 91.4046C89.0933 92.8997 90.5256 94.9714 91.0882 97.6194ZM82.9125 106.328C84.7059 105.921 86.1141 104.93 87.1371 103.354C88.17 101.764 88.498 100.082 88.1211 98.3086C87.7389 96.5099 86.73 95.0794 85.0944 94.017C83.4587 92.9547 81.7492 92.6195 79.9656 93.0115C78.1768 93.3785 76.7659 94.3571 75.7331 95.9474C74.7002 97.5376 74.3748 99.232 74.757 101.031C75.1339 102.804 76.1401 104.222 77.7758 105.285C79.3963 106.337 81.1085 106.685 82.9125 106.328Z" fill="#4D9300"/>
<path d="M83.1579 82.2131L94.0809 73.7546L95.9053 76.1105L91.686 79.3779L101.471 92.0143L99.0084 93.9216L89.223 81.2852L84.9823 84.5691L83.1579 82.2131Z" fill="#4D9300"/>
<path d="M120.484 83.0798L117.551 84.1282L113.221 72.0117L109.133 87.1367L106.837 87.9572L100.456 70.1013L103.389 69.0529L107.72 81.1694L111.807 66.0444L114.103 65.2239L120.484 83.0798Z" fill="#4D9300"/>
<path d="M138.144 63.8495L141.474 63.9674L140.802 82.9175L137.689 82.8073L138.168 69.2985L132.064 78.6235L131.685 78.6101L126.257 68.8496L125.778 82.3854L122.664 82.2751L123.336 63.325L126.692 63.4439L132.069 73.1213L138.144 63.8495Z" fill="#4D9300"/>
<path d="M150.969 87.518C148.361 86.3597 146.58 84.5411 145.626 82.0623C144.687 79.5504 144.778 77.0319 145.899 74.5068C147.028 71.9652 148.832 70.2173 151.311 69.2633C153.781 68.2855 156.328 68.3793 158.952 69.5449C160.52 70.2414 161.799 71.2542 162.789 72.5833C163.796 73.9198 164.389 75.3884 164.567 76.9891L161.454 77.3254C161.373 76.2619 160.997 75.2846 160.325 74.3937C159.678 73.4935 158.81 72.8015 157.72 72.3176C155.888 71.5039 154.126 71.4227 152.434 72.074C150.782 72.7235 149.553 73.9559 148.746 75.7714C147.94 77.5868 147.85 79.3251 148.475 80.9863C149.127 82.6785 150.368 83.9316 152.2 84.7453C153.289 85.2291 154.39 85.4214 155.501 85.3222C156.619 85.2064 157.592 84.8184 158.419 84.1581L160.268 86.6688C159.001 87.6079 157.518 88.1648 155.82 88.3393C154.187 88.5029 152.569 88.2291 150.969 87.518Z" fill="#4D9300"/>
<path d="M175.996 81.2405L181.516 86.4417L168.513 100.243L166.246 98.107L170.983 93.0793L168.794 91.0174L160.725 92.9058L158.162 90.491L166.594 88.5726C165.934 87.4297 165.674 86.2046 165.814 84.8974C165.966 83.577 166.488 82.4436 167.38 81.4972C168.544 80.2616 169.956 79.6191 171.615 79.5697C173.3 79.5195 174.76 80.0765 175.996 81.2405ZM169.643 87.9835L172.896 91.0485L177.243 86.4349L173.99 83.3699C173.385 82.8003 172.662 82.5407 171.82 82.5914C170.978 82.642 170.254 82.9893 169.647 83.6334C169.041 84.2775 168.737 85.0211 168.737 85.8643C168.736 86.7075 169.038 87.4139 169.643 87.9835Z" fill="#4D9300"/>
<path d="M181.212 121.455C178.806 120.27 177.161 118.379 176.277 115.78C175.393 113.181 175.54 110.671 176.719 108.248C177.92 105.836 179.82 104.188 182.419 103.304C185.018 102.42 187.52 102.57 189.926 103.754C192.355 104.95 194.011 106.847 194.895 109.445C195.779 112.044 195.621 114.549 194.419 116.961C193.241 119.384 191.352 121.038 188.753 121.922C186.155 122.806 183.641 122.65 181.212 121.455ZM179.426 109.644C178.636 111.305 178.544 113.025 179.149 114.803C179.76 116.598 180.879 117.896 182.506 118.697C184.155 119.509 185.904 119.601 187.75 118.973C189.596 118.344 190.917 117.208 191.712 115.564C192.53 113.932 192.634 112.218 192.023 110.423C191.412 108.628 190.282 107.324 188.632 106.512C187.005 105.711 185.269 105.625 183.422 106.253C181.593 106.875 180.261 108.006 179.426 109.644Z" fill="#4D9300"/>
<path d="M188.297 140.116L177.457 146.445L178.034 142.779L188.107 136.795L179.196 135.393L179.68 132.316L198.412 135.263L197.928 138.34L189.525 137.018L196.808 145.458L196.231 149.124L188.297 140.116Z" fill="#4D9300"/>
<path d="M170.003 161.231L171.533 158.241L175.538 158.799L179.214 151.612L176.418 148.691L177.961 145.677L191.708 160.438L190.005 163.766L170.003 161.231ZM187.601 160.437L181.35 153.861L178.611 159.215L187.601 160.437Z" fill="#4D9300"/>
<path d="M169.553 175.874L175.632 182.053L173.412 184.238L160.113 170.721L162.333 168.537L167.444 173.731C167.966 172.381 168.748 171.194 169.791 170.168C171.155 168.825 172.623 168.116 174.194 168.039C175.778 167.975 177.185 168.568 178.413 169.816L183.163 174.643L180.942 176.828L176.421 172.233C175.737 171.538 174.986 171.2 174.169 171.218C173.351 171.237 172.576 171.608 171.842 172.33C170.761 173.394 169.998 174.575 169.553 175.874Z" fill="#4D9300"/>
<path d="M158.942 180.755L156.553 176.227L149.126 180.145L147.735 177.51L157.918 172.137L166.766 188.908L156.704 194.217L155.313 191.582L162.621 187.726L160.32 183.366L153.612 186.906L152.234 184.294L158.942 180.755Z" fill="#4D9300"/>
<path d="M137.827 179.386C140.638 178.896 143.13 179.415 145.303 180.943C147.482 182.506 148.808 184.649 149.283 187.371C149.76 190.111 149.235 192.567 147.707 194.74C146.2 196.927 144.032 198.267 141.204 198.76C139.514 199.055 137.887 198.926 136.324 198.373C134.744 197.824 133.434 196.934 132.394 195.704L134.793 193.691C135.453 194.529 136.309 195.131 137.363 195.498C138.402 195.885 139.509 195.976 140.683 195.771C142.658 195.427 144.166 194.514 145.209 193.03C146.22 191.571 146.555 189.863 146.214 187.906C145.873 185.949 144.98 184.455 143.535 183.423C142.052 182.38 140.323 182.031 138.348 182.375C137.174 182.58 136.153 183.032 135.285 183.734C134.421 184.453 133.829 185.316 133.51 186.325L130.576 185.269C131.105 183.784 132.027 182.496 133.34 181.405C134.606 180.36 136.101 179.687 137.827 179.386Z" fill="#4D9300"/>
<path d="M127.932 199.623L114.262 197.625L114.693 194.677L119.973 195.448L122.284 179.634L125.367 180.085L123.056 195.899L128.363 196.675L127.932 199.623Z" fill="#4D9300"/>
<path d="M101.342 182.648C100.775 181.902 100.444 181.078 100.35 180.175C100.248 179.289 100.405 178.405 100.82 177.522C101.482 176.117 102.53 175.183 103.965 174.721C105.4 174.259 106.837 174.366 108.274 175.043L115.627 178.504L107.552 195.661L100.738 192.453C99.3329 191.792 98.3637 190.777 97.8303 189.408C97.2807 188.032 97.3212 186.673 97.9518 185.334C98.644 183.863 99.774 182.968 101.342 182.648ZM101.984 189.806L105.979 191.687L108.102 187.177L104.107 185.297C103.486 185.004 102.863 184.971 102.238 185.196C101.606 185.437 101.14 185.876 100.84 186.513C100.54 187.151 100.502 187.782 100.727 188.406C100.944 189.047 101.363 189.514 101.984 189.806ZM111.563 179.824L107.029 177.69C106.375 177.382 105.72 177.354 105.063 177.603C104.383 177.862 103.885 178.326 103.57 178.996C103.254 179.666 103.218 180.337 103.46 181.01C103.678 181.692 104.114 182.186 104.767 182.494L109.302 184.628L111.563 179.824Z" fill="#4D9300"/>
<path d="M94.0818 175.419L97.4929 171.601L91.2308 166.006L93.2161 163.784L101.801 171.455L89.1675 185.595L80.6833 178.015L82.6687 175.792L88.8297 181.297L92.1145 177.621L86.4584 172.567L88.4257 170.365L94.0818 175.419Z" fill="#4D9300"/>
<path d="M115.604 127.409C118.622 130.202 120.219 133.342 119.185 134.41C118.152 135.477 114.868 134.075 111.856 131.277C108.843 128.48 107.24 125.344 108.274 124.277C109.308 123.21 112.57 124.582 115.604 127.409Z" fill="#4D9300"/>
<path d="M128.349 114.199C131.362 116.996 132.965 120.132 131.93 121.209C130.894 122.287 127.612 120.874 124.6 118.077C121.587 115.28 119.984 112.144 121.018 111.077C122.052 110.01 125.319 111.414 128.349 114.199Z" fill="#4D9300"/>
<path d="M141.26 148.169C134.224 153.175 124.219 153.793 114.707 149.56C114.394 149.378 114.161 149.086 114.051 148.742C113.941 148.397 113.963 148.024 114.112 147.694C114.262 147.365 114.528 147.103 114.86 146.958C115.191 146.814 115.565 146.798 115.908 146.913C125.693 151.265 135.954 149.999 142.076 143.671C148.038 137.52 148.884 127.62 144.23 118.469C144.141 118.296 144.088 118.108 144.073 117.915C144.057 117.721 144.08 117.527 144.14 117.342C144.2 117.158 144.296 116.987 144.421 116.839C144.547 116.692 144.701 116.57 144.874 116.482C145.046 116.394 145.235 116.341 145.428 116.325C145.622 116.31 145.816 116.333 146.001 116.393C146.185 116.453 146.356 116.548 146.504 116.674C146.651 116.8 146.772 116.954 146.861 117.126C152.089 127.411 151.043 138.618 144.203 145.69C143.3 146.605 142.315 147.434 141.26 148.169Z" fill="#4D9300"/>
</g>
<defs>
<clipPath id="clip0_692_35">
<rect width="191.562" height="191.562" fill="white" transform="translate(0 95.2241) rotate(-29.8078)"/>
</clipPath>
</defs>
</svg>
