<svg width="92" height="26" viewBox="0 0 92 26" fill="none" xmlns="http://www.w3.org/2000/svg">
<path d="M10.248 19.76H10.368C10.752 19.76 10.944 19.584 10.944 19.232C10.944 19.104 10.92 18.968 10.872 18.824L8.712 12.992H4.512L2.424 18.728C2.376 18.856 2.352 18.976 2.352 19.088C2.352 19.296 2.408 19.464 2.52 19.592C2.632 19.704 2.752 19.76 2.88 19.76H3V20H0.336V19.76H0.456C0.664 19.76 0.864 19.64 1.056 19.4C1.264 19.144 1.432 18.848 1.56 18.512L7.056 3.872L12.432 18.368C12.544 18.688 12.696 19 12.888 19.304C13.096 19.608 13.36 19.76 13.68 19.76H13.8V20H10.248V19.76ZM4.752 12.176H8.448L6.6 7.16L4.752 12.176ZM28.1483 19.76H28.2682C28.3803 19.76 28.4843 19.712 28.5803 19.616C28.6763 19.52 28.7563 19.408 28.8203 19.28C28.9003 19.152 28.9563 19.016 28.9883 18.872C29.0203 18.712 29.0363 18.568 29.0363 18.44V5.816L22.8443 20.264L16.9643 6.56V18.44C16.9643 18.568 16.9803 18.712 17.0123 18.872C17.0443 19.016 17.0923 19.152 17.1562 19.28C17.2363 19.408 17.3243 19.52 17.4203 19.616C17.5163 19.712 17.6283 19.76 17.7563 19.76H17.8763V20H15.2603V19.76H15.3803C15.4923 19.76 15.5963 19.712 15.6923 19.616C15.7883 19.52 15.8683 19.408 15.9323 19.28C15.9963 19.152 16.0443 19.016 16.0763 18.872C16.1083 18.712 16.1243 18.568 16.1243 18.44V5.648C16.1243 5.536 16.1083 5.408 16.0763 5.264C16.0443 5.12 15.9963 4.984 15.9323 4.856C15.8683 4.728 15.7883 4.624 15.6923 4.544C15.5963 4.448 15.4923 4.4 15.3803 4.4H15.2603V4.16H17.7083L23.2763 17.288L28.8443 4.16H31.5563V4.4H31.4363C31.3083 4.4 31.1963 4.448 31.1003 4.544C31.0043 4.624 30.9163 4.728 30.8363 4.856C30.7723 4.984 30.7243 5.12 30.6923 5.264C30.6603 5.408 30.6443 5.536 30.6443 5.648V18.44C30.6443 18.568 30.6603 18.712 30.6923 18.872C30.7243 19.016 30.7723 19.152 30.8363 19.28C30.9163 19.408 31.0043 19.52 31.1003 19.616C31.1963 19.712 31.3083 19.76 31.4363 19.76H31.5563V20H28.1483V19.76ZM43.0605 19.76H43.1805C43.5645 19.76 43.7565 19.584 43.7565 19.232C43.7565 19.104 43.7325 18.968 43.6845 18.824L41.5245 12.992H37.3245L35.2365 18.728C35.1885 18.856 35.1645 18.976 35.1645 19.088C35.1645 19.296 35.2205 19.464 35.3325 19.592C35.4445 19.704 35.5645 19.76 35.6925 19.76H35.8125V20H33.1485V19.76H33.2685C33.4765 19.76 33.6765 19.64 33.8685 19.4C34.0765 19.144 34.2445 18.848 34.3725 18.512L39.8685 3.872L45.2445 18.368C45.3565 18.688 45.5085 19 45.7005 19.304C45.9085 19.608 46.1725 19.76 46.4925 19.76H46.6125V20H43.0605V19.76ZM37.5645 12.176H41.2605L39.4125 7.16L37.5645 12.176ZM48.0248 19.76H48.1448C48.2568 19.76 48.3608 19.712 48.4568 19.616C48.5528 19.52 48.6328 19.408 48.6968 19.28C48.7768 19.152 48.8328 19.016 48.8648 18.872C48.8968 18.712 48.9128 18.568 48.9128 18.44V5.648C48.9128 5.536 48.8968 5.408 48.8648 5.264C48.8328 5.12 48.7848 4.984 48.7208 4.856C48.6568 4.728 48.5768 4.624 48.4808 4.544C48.3848 4.448 48.2728 4.4 48.1448 4.4H48.0248V4.16H52.6568C53.9208 4.16 55.0568 4.384 56.0648 4.832C57.0728 5.264 57.9208 5.856 58.6088 6.608C59.3128 7.344 59.8488 8.192 60.2168 9.152C60.5848 10.112 60.7688 11.112 60.7688 12.152C60.7688 13.128 60.5928 14.088 60.2408 15.032C59.8888 15.96 59.3608 16.792 58.6568 17.528C57.9528 18.264 57.0728 18.864 56.0168 19.328C54.9608 19.776 53.7368 20 52.3448 20H48.0248V19.76ZM59.1368 12.512C59.1368 11.488 58.9528 10.52 58.5848 9.608C58.2168 8.696 57.6968 7.904 57.0248 7.232C56.3688 6.544 55.5848 6 54.6728 5.6C53.7768 5.2 52.8008 5 51.7448 5H50.5208V19.16H51.7928C52.6568 19.16 53.5208 19.032 54.3848 18.776C55.2648 18.504 56.0568 18.096 56.7608 17.552C57.4648 16.992 58.0328 16.296 58.4648 15.464C58.9128 14.632 59.1368 13.648 59.1368 12.512ZM62.8378 19.76H62.9578C63.0858 19.76 63.1978 19.72 63.2938 19.64C63.3898 19.544 63.4698 19.432 63.5338 19.304C63.6138 19.176 63.6698 19.04 63.7018 18.896C63.7498 18.752 63.7738 18.616 63.7738 18.488V5.648C63.7738 5.536 63.7498 5.408 63.7018 5.264C63.6698 5.12 63.6138 4.984 63.5338 4.856C63.4698 4.728 63.3898 4.624 63.2938 4.544C63.1978 4.448 63.0858 4.4 62.9578 4.4H62.8378V4.16H72.0778V6.392H71.8378C71.8058 6.024 71.6618 5.704 71.4058 5.432C71.1498 5.144 70.7498 5 70.2058 5H65.3818V11.072H69.3658C69.7338 11.072 70.0378 10.96 70.2778 10.736C70.5338 10.512 70.6618 10.248 70.6618 9.944H70.9018V12.944H70.6618C70.6618 12.656 70.5418 12.408 70.3018 12.2C70.0618 11.992 69.7498 11.888 69.3658 11.888H65.3818V19.16H70.6378C70.9418 19.16 71.2058 19.088 71.4298 18.944C71.6538 18.8 71.8378 18.632 71.9818 18.44C72.1418 18.232 72.2538 18.016 72.3178 17.792C72.3978 17.552 72.4378 17.352 72.4378 17.192H72.6778V20H62.8378V19.76ZM82.5743 3.92C83.8223 3.92 84.9423 4.144 85.9343 4.592C86.9263 5.024 87.7663 5.616 88.4543 6.368C89.1583 7.104 89.6943 7.968 90.0623 8.96C90.4463 9.936 90.6383 10.96 90.6383 12.032C90.6383 13.232 90.4143 14.336 89.9663 15.344C89.5343 16.352 88.9343 17.216 88.1663 17.936C87.3983 18.656 86.5023 19.224 85.4783 19.64C84.4703 20.04 83.3903 20.24 82.2383 20.24C81.0063 20.24 79.8943 20.016 78.9023 19.568C77.9263 19.12 77.0943 18.528 76.4062 17.792C75.7343 17.056 75.2143 16.208 74.8463 15.248C74.4783 14.288 74.2943 13.288 74.2943 12.248C74.2943 11.224 74.4783 10.216 74.8463 9.224C75.2143 8.216 75.7503 7.32 76.4543 6.536C77.1743 5.752 78.0463 5.12 79.0703 4.64C80.0943 4.16 81.2623 3.92 82.5743 3.92ZM82.5503 19.4C83.6223 19.352 84.5583 19.112 85.3583 18.68C86.1743 18.232 86.8543 17.672 87.3983 17C87.9423 16.312 88.3423 15.56 88.5983 14.744C88.8703 13.928 89.0063 13.12 89.0063 12.32C89.0063 11.44 88.8463 10.552 88.5263 9.656C88.2063 8.76 87.7503 7.952 87.1583 7.232C86.5663 6.496 85.8543 5.904 85.0223 5.456C84.2063 4.992 83.2863 4.76 82.2623 4.76C81.2703 4.76 80.3823 4.984 79.5983 5.432C78.8143 5.864 78.1423 6.424 77.5823 7.112C77.0383 7.8 76.6223 8.568 76.3343 9.416C76.0463 10.264 75.9023 11.096 75.9023 11.912C75.9023 12.792 76.0703 13.68 76.4062 14.576C76.7423 15.456 77.2063 16.256 77.7983 16.976C78.3903 17.696 79.0863 18.28 79.8863 18.728C80.7023 19.176 81.5903 19.4 82.5503 19.4Z" fill="white"/>
</svg>
