<?xml version="1.0" encoding="utf-8"?><svg viewBox="0 0 92 26" xmlns="http://www.w3.org/2000/svg" xmlns:xlink="http://www.w3.org/1999/xlink"><style>:root>svg{display:none}:root>svg:target{display:block}</style><svg viewBox="0 0 24 24" id="burger" xmlns="http://www.w3.org/2000/svg"><g clip-path="url(#aa)" stroke-linecap="round" stroke-linejoin="round"><path d="M6 6.914h11.828M6 11.914h11.828M6 16.914h11.828"/></g><defs><clipPath id="aa"><path d="M0 0h24v24H0z"/></clipPath></defs></svg><svg viewBox="0 0 24 24" id="burger-close" xmlns="http://www.w3.org/2000/svg"><path d="M18.958 18.958L5 5m0 13.958L18.958 5"/></svg><svg viewBox="0 0 24 24" id="cart" xmlns="http://www.w3.org/2000/svg"><path d="M5.25 16.75v-5a2 2 0 012-2h9.5a2 2 0 012 2v5a2 2 0 01-2 2h-9.5a2 2 0 01-2-2z"/><path d="M8.5 11.667V8.75a3.5 3.5 0 117 0v2.917"/></svg><svg viewBox="0 0 24 24" id="favorite" xmlns="http://www.w3.org/2000/svg"><path d="M11.5 8.25S12.415 5 15.314 5C17.57 5 19 6.863 19 9.07c0 3.054-2.977 5.075-7.5 8.93C6.977 14.145 4 12.124 4 9.07 4 6.864 5.429 5 7.686 5 10.585 5 11.5 8.25 11.5 8.25z"/></svg><svg viewBox="0 0 92 26" id="logo" xmlns="http://www.w3.org/2000/svg"><path d="M10.248 19.76h.12c.384 0 .576-.176.576-.528 0-.128-.024-.264-.072-.408l-2.16-5.832h-4.2l-2.088 5.736a1.028 1.028 0 00-.072.36c0 .208.056.376.168.504a.505.505 0 00.36.168H3V20H.336v-.24h.12c.208 0 .408-.12.6-.36.208-.256.376-.552.504-.888l5.496-14.64 5.376 14.496c.112.32.264.632.456.936.208.304.472.456.792.456h.12V20h-3.552v-.24zm-5.496-7.584h3.696L6.6 7.16l-1.848 5.016zm23.396 7.584h.12a.436.436 0 00.312-.144c.096-.096.176-.208.24-.336.08-.128.136-.264.168-.408.032-.16.048-.304.048-.432V5.816l-6.192 14.448-5.88-13.704v11.88c0 .128.016.272.048.432.032.144.08.28.144.408.08.128.168.24.264.336a.46.46 0 00.336.144h.12V20H15.26v-.24h.12a.436.436 0 00.312-.144c.096-.096.176-.208.24-.336.064-.128.112-.264.144-.408.032-.16.048-.304.048-.432V5.648c0-.112-.016-.24-.048-.384a1.764 1.764 0 00-.144-.408.955.955 0 00-.24-.312.436.436 0 00-.312-.144h-.12v-.24h2.448l5.568 13.128L28.844 4.16h2.712v.24h-.12a.46.46 0 00-.336.144c-.096.08-.184.184-.264.312a1.764 1.764 0 00-.144.408 1.793 1.793 0 00-.048.384V18.44c0 .128.016.272.048.432.032.144.08.28.144.408.08.128.168.24.264.336a.46.46 0 00.336.144h.12V20h-3.408v-.24zm14.912 0h.12c.385 0 .577-.176.577-.528 0-.128-.024-.264-.072-.408l-2.16-5.832h-4.2l-2.089 5.736a1.028 1.028 0 00-.072.36c0 .208.056.376.169.504a.505.505 0 00.36.168h.12V20h-2.665v-.24h.12c.209 0 .408-.12.6-.36.209-.256.377-.552.505-.888l5.495-14.64 5.377 14.496c.111.32.264.632.456.936.207.304.471.456.791.456h.12V20H43.06v-.24zm-5.495-7.584h3.696L39.412 7.16l-1.847 5.016zm10.46 7.584h.12a.436.436 0 00.312-.144c.096-.096.176-.208.24-.336.08-.128.136-.264.168-.408.032-.16.048-.304.048-.432V5.648c0-.112-.016-.24-.048-.384a1.764 1.764 0 00-.144-.408.955.955 0 00-.24-.312.46.46 0 00-.336-.144h-.12v-.24h4.632c1.264 0 2.4.224 3.408.672 1.008.432 1.856 1.024 2.544 1.776a7.554 7.554 0 011.608 2.544c.368.96.552 1.96.552 3 0 .976-.176 1.936-.528 2.88a7.356 7.356 0 01-1.584 2.496c-.704.736-1.584 1.336-2.64 1.8-1.056.448-2.28.672-3.672.672h-4.32v-.24zm11.112-7.248a7.687 7.687 0 00-.552-2.904 7.051 7.051 0 00-1.56-2.376A7.212 7.212 0 0054.673 5.6c-.896-.4-1.872-.6-2.928-.6H50.52v14.16h1.272c.864 0 1.728-.128 2.592-.384a7.446 7.446 0 002.376-1.224 6.397 6.397 0 001.704-2.088c.448-.832.672-1.816.672-2.952zm3.7 7.248h.12c.129 0 .24-.04.337-.12.096-.096.176-.208.24-.336.08-.128.136-.264.168-.408.048-.144.072-.28.072-.408V5.648c0-.112-.024-.24-.072-.384a1.295 1.295 0 00-.168-.408.955.955 0 00-.24-.312.46.46 0 00-.336-.144h-.12v-.24h9.24v2.232h-.24a1.562 1.562 0 00-.432-.96C71.15 5.144 70.75 5 70.206 5h-4.824v6.072h3.984c.368 0 .672-.112.912-.336.256-.224.384-.488.384-.792h.24v3h-.24c0-.288-.12-.536-.36-.744-.24-.208-.552-.312-.936-.312h-3.984v7.272h5.256c.304 0 .568-.072.792-.216.224-.144.408-.312.552-.504.16-.208.272-.424.336-.648.08-.24.12-.44.12-.6h.24V20h-9.84v-.24zM82.575 3.92c1.248 0 2.368.224 3.36.672a7.335 7.335 0 012.52 1.776c.704.736 1.24 1.6 1.608 2.592.384.976.576 2 .576 3.072 0 1.2-.224 2.304-.672 3.312a7.622 7.622 0 01-1.8 2.592 8.646 8.646 0 01-2.688 1.704c-1.008.4-2.088.6-3.24.6-1.232 0-2.344-.224-3.336-.672a7.863 7.863 0 01-2.496-1.776 7.961 7.961 0 01-1.56-2.544 8.31 8.31 0 01-.552-3c0-1.024.184-2.032.552-3.024a8.184 8.184 0 011.608-2.688A8.273 8.273 0 0179.07 4.64c1.024-.48 2.192-.72 3.504-.72zM82.55 19.4c1.072-.048 2.008-.288 2.808-.72a6.794 6.794 0 002.04-1.68 6.982 6.982 0 001.2-2.256 7.631 7.631 0 00.408-2.424c0-.88-.16-1.768-.48-2.664a8.046 8.046 0 00-1.368-2.424 6.932 6.932 0 00-2.136-1.776c-.816-.464-1.736-.696-2.76-.696-.992 0-1.88.224-2.664.672a6.814 6.814 0 00-2.016 1.68 7.652 7.652 0 00-1.248 2.304 7.733 7.733 0 00-.432 2.496c0 .88.168 1.768.504 2.664.336.88.8 1.68 1.392 2.4a7.304 7.304 0 002.088 1.752 5.446 5.446 0 002.664.672z"/></svg><svg viewBox="0 0 24 24" id="search" xmlns="http://www.w3.org/2000/svg"><g clip-path="url(#fa)" stroke-linecap="round" stroke-linejoin="round"><path d="M14 14l4 4"/><circle cx="10" cy="10" r="5"/></g><defs><clipPath id="fa"><path d="M0 0h24v24H0z"/></clipPath></defs></svg><svg viewBox="0 0 8 14" id="search-form__back" xmlns="http://www.w3.org/2000/svg"><path d="M7 13L1 7l6-6"/></svg><svg viewBox="0 0 24 24" id="user" xmlns="http://www.w3.org/2000/svg"><path d="M9.751 8.926a2.25 2.25 0 104.498.148 2.25 2.25 0 00-4.498-.148zM16.5 17.25a4.863 4.863 0 00-1.794-2.181A4.879 4.879 0 007.5 17.25"/></svg></svg>