<svg width="24" height="24" viewBox="0 0 24 24" fill="none" xmlns="http://www.w3.org/2000/svg">
<g clip-path="url(#clip0_1949_1430)">
<path fill-rule="evenodd" clip-rule="evenodd" d="M0.476528 3.05436C0.0759596 3.1724 -0.118255 3.58809 0.0759596 3.90627C0.264105 4.20393 0.312659 4.2142 2.10915 4.22959C3.45651 4.23986 3.76604 4.26038 3.81459 4.31684C3.83887 4.35789 4.09985 5.40996 4.39117 6.65191L4.39518 6.66924C4.77087 8.29379 4.94434 9.0439 5.11044 9.79565C5.25291 10.4405 5.38995 11.0865 5.64454 12.2866C5.67961 12.4519 5.7169 12.6277 5.75674 12.8155C6.1998 14.8888 6.41222 15.7612 6.51539 15.9563C6.78851 16.4643 7.37115 16.8338 8.05697 16.9467C8.51823 17.0186 19.8191 17.0186 20.2986 16.9416C20.9541 16.839 21.5367 16.4746 21.8341 15.9819C21.9069 15.8588 22.3925 14.1344 22.9994 11.8301C23.8976 8.41219 24.0311 7.8528 23.9947 7.60646C23.9158 7.01628 23.4485 6.44149 22.8173 6.18489L22.4774 6.0412L14.1019 6.01554L5.7264 5.98988L5.50791 5.05585C5.38652 4.54265 5.24086 4.01918 5.18624 3.89088C5.05878 3.60862 4.69463 3.29556 4.31227 3.13647C4.03916 3.02357 3.96026 3.01844 2.35798 3.00304C1.14414 2.99278 0.634327 3.00817 0.476528 3.05436ZM22.3925 7.44224C22.4956 7.53975 22.5685 7.66805 22.5685 7.75016C22.5685 7.9965 20.6202 15.325 20.511 15.4841C20.4503 15.5714 20.3229 15.6637 20.2015 15.6997C19.898 15.7869 8.48789 15.7869 8.18443 15.6997C8.06304 15.6637 7.93559 15.5765 7.8749 15.4841C7.80814 15.3917 7.54716 14.2576 7.18301 12.5589C6.54574 9.5361 6.1391 7.61159 6.08448 7.38579L6.04806 7.24722L14.1323 7.25748L22.2164 7.27288L22.3925 7.44224ZM9.0008 18.0886C7.95702 18.4755 7.6597 19.8012 8.44412 20.5814C8.77307 20.9112 8.99448 21 9.48791 21C10.1395 21 10.5886 20.7273 10.886 20.15C11.0441 19.8329 11.0378 19.1796 10.867 18.8498C10.5064 18.1584 9.69666 17.8285 9.0008 18.0886ZM17.4793 18.6327C17.6841 18.3479 17.8696 18.2086 18.2279 18.082C18.842 17.8478 19.6353 18.1326 20 18.715C20.1727 18.9935 20.1919 19.0821 20.1919 19.5125C20.1919 19.9429 20.1727 20.0316 20 20.3101C19.8784 20.5 19.6865 20.6898 19.4946 20.8101C19.2195 20.9747 19.1171 21 18.7269 21C18.3622 21 18.2151 20.9684 17.9847 20.8418C17.185 20.3987 16.9419 19.3606 17.4793 18.6327Z" fill="white"/>
</g>
<defs>
<clipPath id="clip0_1949_1430">
<rect width="24" height="23.9991" fill="white"/>
</clipPath>
</defs>
</svg>
