<svg width="221" height="56" viewBox="0 0 221 56" fill="none" xmlns="http://www.w3.org/2000/svg">
<path d="M0.339205 31.5397C0.211499 31.4563 0.228161 31.3462 0.389191 31.2094C0.501779 30.4884 0.61776 29.7965 0.737132 29.1337C0.875904 28.4686 1.02551 27.8121 1.18594 27.1642C1.34411 26.4969 1.51199 25.8284 1.68956 25.1588C1.88427 24.4676 2.08529 23.7461 2.29261 22.9943C2.36926 22.8084 2.32951 22.6361 2.17335 22.4773C2.03434 22.2969 1.86736 22.1296 1.67241 21.9753C1.49459 21.7994 1.35558 21.619 1.25537 21.434C1.17229 21.2274 1.22502 21.005 1.41354 20.7667C1.43068 20.745 1.49518 20.708 1.60706 20.6557C1.73834 20.601 1.88044 20.555 2.03338 20.5175C2.18406 20.4606 2.31647 20.4156 2.4306 20.3827C2.56188 20.3281 2.64579 20.2888 2.68233 20.2649C2.736 20.2193 2.8314 20.1098 2.9685 19.9365C3.12275 19.7416 3.21588 19.6128 3.2479 19.55C3.49724 18.9901 3.73396 18.4905 3.95807 18.0515C4.20158 17.6102 4.41599 17.1722 4.6013 16.7377C4.80601 16.3009 4.97935 15.8481 5.12134 15.3793C5.26333 14.9105 5.37687 14.3663 5.46196 13.7468C5.49303 13.5073 5.41787 13.3685 5.23648 13.3307C5.07224 13.2712 4.88002 13.2248 4.65984 13.1914C4.43966 13.1581 4.25488 13.0912 4.10551 12.9906C3.95389 12.8706 3.91592 12.6293 3.99161 12.2665C4.04434 12.0441 4.3858 11.7683 5.01599 11.4392C5.66559 11.1079 6.49092 10.7659 7.49198 10.4132C8.49303 10.0605 9.62245 9.71259 10.8802 9.36934C12.138 9.02609 13.4003 8.72164 14.6671 8.45598C15.934 8.19033 17.1482 7.97996 18.31 7.82488C19.4694 7.65039 20.4634 7.57386 21.2917 7.59528C22.1178 7.5973 22.7213 7.71376 23.1022 7.94465C23.4808 8.15614 23.5129 8.51617 23.1986 9.02474C23.0285 9.08389 22.8453 9.11507 22.6491 9.11829C22.4699 9.09984 22.28 9.07282 22.0792 9.03724C21.8784 9.00165 21.6691 8.9769 21.4512 8.96297C21.231 8.92965 21.025 8.93399 20.8333 8.97601C19.9111 9.16216 19.0027 9.29754 18.1081 9.38217C17.2134 9.46679 16.3199 9.56112 15.4275 9.66514C14.5351 9.76917 13.6472 9.91199 12.7639 10.0936C11.8783 10.2558 11.004 10.5151 10.141 10.8713C9.54051 11.1183 9.0238 11.4931 8.59081 11.9958C8.15557 12.4792 7.75442 13.0863 7.38737 13.8173C7.03746 14.5267 6.69029 15.3439 6.34586 16.2689C6.02082 17.1916 5.64777 18.2085 5.22668 19.3194C5.44687 19.3527 5.84004 19.2675 6.40621 19.0639C6.99178 18.858 7.65155 18.6139 8.38553 18.3317C9.13665 18.0279 9.9277 17.7292 10.7587 17.4357C11.5874 17.1228 12.3658 16.8846 13.094 16.7211C13.8393 16.5359 14.4989 16.459 15.0728 16.4904C15.6444 16.5024 16.0487 16.6814 16.2857 17.0274C16.3096 17.0639 16.3261 17.121 16.3351 17.1986C16.3442 17.2762 16.3401 17.3258 16.323 17.3475C15.3129 17.6226 14.2629 17.8924 13.1729 18.1571C12.1001 18.4002 11.0318 18.682 9.968 19.0026C8.92362 19.321 7.90655 19.705 6.9168 20.1547C5.92479 20.5849 5.00454 21.1248 4.15607 21.7743C3.57039 23.16 3.06683 24.5755 2.64539 26.0207C2.22396 27.466 1.87268 28.9227 1.59157 30.3909C2.13155 30.1313 2.75996 29.8713 3.4768 29.6107C4.21079 29.3285 4.90823 29.0703 5.56913 28.8359C6.24944 28.5993 6.83614 28.4031 7.32923 28.2473C7.84172 28.0892 8.14533 27.9949 8.24007 27.9642C9.85966 27.5197 11.4181 27.1414 12.9155 26.8292C14.43 26.4954 16.0174 26.2809 17.6777 26.1856C17.818 26.2086 17.9241 26.2749 17.9958 26.3845C18.0676 26.4941 18.1222 26.6254 18.1597 26.7783C18.1949 26.9119 18.2108 27.0477 18.2072 27.1857C18.2036 27.3238 18.1955 27.4231 18.1829 27.4835C16.0548 27.6136 13.9589 27.9366 11.8954 28.4524C9.85128 28.966 7.82702 29.5657 5.82265 30.2516C5.50189 30.3677 5.11033 30.551 4.64794 30.8015C4.20496 31.0498 3.74032 31.2809 3.25401 31.4949C2.7871 31.7066 2.32424 31.8687 1.86543 31.9812C1.42602 32.0914 1.03867 32.0579 0.703401 31.8807C0.621278 31.8509 0.547725 31.8104 0.482741 31.7589C0.417757 31.7075 0.369912 31.6345 0.339205 31.5397Z" fill="white"/>
<path d="M33.8249 27.3119C32.3843 25.7494 31.2213 24.4594 30.3358 23.4418C29.448 22.4048 28.73 21.643 28.1817 21.1563C27.6333 20.6697 27.2051 20.4541 26.897 20.5097C26.5888 20.5653 26.2844 20.9056 25.9836 21.5305C25.7 22.1338 25.3608 23.0189 24.9659 24.1858C24.571 25.3526 24.0126 26.804 23.2908 28.5398C23.1992 28.7668 23.089 28.9173 22.96 28.9913C22.8481 29.0437 22.7317 29.0573 22.6108 29.032C22.4876 28.9874 22.3696 28.9029 22.2567 28.7784C22.1439 28.6539 22.0493 28.5174 21.9731 28.369C21.8922 28.1818 21.9172 27.8053 22.0479 27.2395C22.1763 26.6543 22.3796 25.9522 22.6577 25.1332C22.953 24.2926 23.2974 23.3676 23.691 22.3582C24.1017 21.3271 24.5296 20.2744 24.9746 19.2C25.439 18.1234 25.8948 17.0576 26.3421 16.0026C26.8088 14.9454 27.236 13.9714 27.6237 13.0807C28.0286 12.1683 28.3878 11.3694 28.7011 10.6839C29.0145 9.99852 29.2404 9.49043 29.3788 9.15968C29.5033 9.04685 29.638 9.02132 29.7828 9.08309C29.9471 9.1426 30.0879 9.254 30.2052 9.41729C30.3397 9.55892 30.4377 9.72448 30.4991 9.91395C30.5582 10.084 30.5558 10.2318 30.4917 10.3572L28.4087 15.2603L28.4867 15.9296C28.9054 15.9791 29.4064 15.8912 29.9897 15.6659C30.5902 15.4189 31.2215 15.0996 31.8837 14.7077C32.5653 14.3137 33.251 13.87 33.9407 13.3766C34.6282 12.8639 35.2779 12.3654 35.89 11.8811C36.5193 11.3752 37.0743 10.9074 37.5552 10.4777C38.0531 10.0264 38.4437 9.66625 38.727 9.39727C38.9634 9.23207 39.1819 9.16726 39.3827 9.20285C39.6029 9.23617 39.7705 9.32478 39.8856 9.46867C40.0201 9.6103 40.0901 9.78895 40.0956 10.0046C40.1011 10.2203 40.0267 10.4256 39.8724 10.6205C39.3948 11.2464 38.8015 11.8072 38.0923 12.3028C37.4004 12.7767 36.6565 13.2272 35.8608 13.6542C35.0628 14.0619 34.2442 14.4621 33.4051 14.8548C32.5832 15.2259 31.7938 15.6228 31.0368 16.0453C30.2799 16.4678 29.5953 16.9212 28.9832 17.4055C28.3711 17.8898 27.8845 18.4381 27.5232 19.0504C27.8003 19.2344 28.1697 19.5355 28.6314 19.9536C29.1102 20.35 29.6249 20.8013 30.1754 21.3073C30.7454 21.8111 31.3199 22.3537 31.8989 22.9351C32.4757 23.4971 32.9931 24.0562 33.4512 24.6124C33.9265 25.1469 34.3185 25.642 34.6272 26.0976C34.9531 26.5315 35.1318 26.8843 35.1635 27.1559L35.2415 27.8252C35.0954 27.9209 34.9533 27.9669 34.8152 27.9633C34.6943 27.9381 34.5711 27.8935 34.4456 27.8294C34.3202 27.7654 34.2033 27.6906 34.095 27.6049C34.0038 27.4975 33.9138 27.3999 33.8249 27.3119Z" fill="white"/>
<path d="M44.3964 26.4041C43.8855 26.0703 43.5569 25.5286 43.4105 24.7788C43.2835 24.0267 43.2907 23.1606 43.4321 22.1807C43.5929 21.1984 43.8656 20.1638 44.2501 19.0768C44.6518 17.9681 45.1379 16.9086 45.7083 15.8983C46.2765 14.8685 46.9153 13.9387 47.6248 13.1088C48.332 12.2595 49.0629 11.6139 49.8176 11.172C50.57 10.7106 51.3313 10.4941 52.1015 10.5223C52.8694 10.5311 53.609 10.8873 54.3202 11.5909C54.7648 12.0307 55.0552 12.4983 55.1916 12.9936C55.3258 13.4696 55.3749 13.9751 55.3389 14.5102C55.3007 15.0259 55.2066 15.5678 55.0565 16.1359C54.9042 16.6845 54.753 17.2429 54.6029 17.811C54.4722 18.3768 54.3717 18.9489 54.3015 19.5273C54.2507 20.1035 54.298 20.6781 54.4435 21.251C54.6264 21.9769 55.0071 22.375 55.5855 22.4452C56.1639 22.5154 56.8287 22.3986 57.5798 22.0947C58.3503 21.7886 59.145 21.3519 59.9637 20.7845C60.7824 20.2172 61.5332 19.6577 62.2161 19.1062C62.9185 18.5524 63.4918 18.0726 63.9361 17.6669C64.3998 17.2589 64.6316 17.0549 64.6316 17.0549C65.1612 16.8752 65.4665 16.8789 65.5473 17.0661C65.6452 17.2317 65.5702 17.5157 65.3222 17.9182C65.0913 18.2991 64.7216 18.7551 64.2133 19.2863C63.7027 19.7981 63.1134 20.3092 62.4454 20.8197C61.7773 21.3301 61.0563 21.8075 60.2822 22.2516C59.5081 22.6958 58.741 23.031 57.9808 23.2573C57.2184 23.4641 56.48 23.5404 55.7658 23.486C55.0687 23.4099 54.4654 23.1263 53.9559 22.6351C53.7154 22.4272 53.5233 22.2136 53.3798 21.9944C53.2557 21.7729 53.067 21.5884 52.8139 21.441C52.5545 21.7465 52.2472 22.1461 51.8918 22.6398C51.5341 23.1141 51.1388 23.6026 50.7058 24.1053C50.29 24.5864 49.8331 25.0526 49.3351 25.5039C48.8565 25.953 48.3473 26.3073 47.8073 26.5669C47.2673 26.8264 46.7029 26.961 46.1141 26.9707C45.5448 26.9781 44.9722 26.7892 44.3964 26.4041ZM44.6011 25.3773C44.8481 25.9778 45.27 26.2236 45.8669 26.1147C46.4615 25.9864 47.1248 25.6042 47.8569 24.9683C48.589 24.3324 49.3275 23.4991 50.0726 22.4684C50.8154 21.4183 51.4596 20.2814 52.0051 19.0577C52.5484 17.8145 52.9201 16.5324 53.12 15.2113C53.3394 13.8879 53.2894 12.6156 52.97 11.3944C52.4615 11.0801 51.8784 11.1382 51.2207 11.5688C50.5607 11.98 49.8783 12.62 49.1733 13.4887C48.4855 14.3358 47.8158 15.338 47.1642 16.4955C46.5297 17.6312 45.9848 18.7763 45.5294 19.9305C45.0718 21.0653 44.7432 22.1261 44.5436 23.1129C44.3634 24.0974 44.3826 24.8522 44.6011 25.3773Z" fill="white"/>
<path d="M65.8545 24.2567C65.8306 24.2201 65.8085 24.1145 65.7881 23.9399C65.7678 23.7654 65.7639 23.6478 65.7765 23.5874C65.8098 23.3672 65.8736 22.9861 65.9677 22.4443C66.0596 21.883 66.1589 21.3011 66.2657 20.6988C66.3702 20.077 66.4695 19.4952 66.5636 18.9533C66.6578 18.4115 66.7215 18.0304 66.7548 17.8102C66.8008 17.5296 66.8519 17.209 66.9082 16.8485C66.9622 16.4686 66.9409 16.1171 66.8443 15.7941C66.5487 15.7893 66.1944 15.8699 65.7811 16.036C65.3656 16.1828 64.949 16.3198 64.5313 16.4472C64.1307 16.5529 63.7427 16.5981 63.3673 16.5829C63.009 16.546 62.7297 16.3426 62.5293 15.9727C62.7055 15.4605 63.0186 15.1094 63.4683 14.9194C63.9158 14.7099 64.4078 14.5444 64.9442 14.4229C65.4806 14.3014 65.9845 14.1541 66.456 13.9812C66.9468 13.806 67.314 13.4977 67.5575 13.0564C67.6733 12.5317 67.8057 11.8968 67.9549 11.1519C68.1211 10.3853 68.2937 9.58848 68.4726 8.76142C68.6515 7.93437 68.8509 7.11475 69.0708 6.30257C69.3102 5.48813 69.5694 4.75986 69.8485 4.11776C70.046 3.95709 70.2195 3.92703 70.3689 4.0276C70.5182 4.12817 70.6356 4.29146 70.7209 4.51748C70.8234 4.72183 70.8979 4.93928 70.9444 5.16981C70.991 5.40035 71.0091 5.55555 70.9987 5.63541C70.9411 6.15338 70.8007 6.72032 70.5776 7.33624C70.3716 7.93049 70.1764 8.53332 69.992 9.14471C69.8271 9.75385 69.7009 10.3585 69.6135 10.9585C69.5456 11.5564 69.61 12.1093 69.8069 12.6172L76.0634 11.8879C76.0828 11.8857 76.1392 11.9479 76.2326 12.0747C76.3238 12.182 76.403 12.2711 76.4702 12.3419C76.5989 12.6022 76.5137 12.799 76.2146 12.9321C75.9155 13.0653 75.5063 13.1818 74.987 13.2817C74.4655 13.3622 73.8664 13.4517 73.1896 13.5502C72.53 13.6271 71.8955 13.7502 71.286 13.9196C70.6936 14.0673 70.1674 14.2761 69.7073 14.546C69.2449 14.7966 68.9502 15.1357 68.8231 15.5635C68.4702 16.9221 68.1572 18.2858 67.8842 19.6548C67.6089 21.0043 67.3553 22.371 67.1233 23.7548C67.0913 23.8175 67.025 23.9236 66.9245 24.0729C66.8216 24.2029 66.708 24.3243 66.5835 24.4371C66.4567 24.5306 66.3243 24.5755 66.1862 24.5719C66.0676 24.5661 65.957 24.461 65.8545 24.2567Z" fill="white"/>
<path d="M78.1929 22.8184C77.5883 22.6922 77.1081 22.4533 76.7525 22.1014C76.414 21.728 76.168 21.3044 76.0145 20.8307C75.8609 20.357 75.7827 19.8549 75.7799 19.3243C75.7942 18.772 75.8506 18.2444 75.9493 17.7413C76.4589 17.0526 77.0263 16.2688 77.6514 15.3897C78.2936 14.489 78.9769 13.6031 79.7012 12.7322C80.4255 11.8612 81.1858 11.045 81.9819 10.2837C82.7951 9.50065 83.6373 8.8814 84.5084 8.42591C84.8029 8.25393 85.0466 8.23536 85.2393 8.37021C85.4491 8.48339 85.6109 8.69066 85.7247 8.99202C85.8385 9.29337 85.9094 9.64887 85.9375 10.0585C85.985 10.4659 86.0022 10.867 85.9893 11.2618C85.9763 11.6566 85.9394 12.0148 85.8786 12.3365C85.8178 12.6582 85.7456 12.8829 85.6622 13.0107C85.4611 13.3094 85.0425 13.6826 84.4065 14.1304C83.7898 14.5759 83.1001 15.0692 82.3373 15.6104C81.5723 16.1321 80.8095 16.6733 80.049 17.2339C79.2885 17.7945 78.6734 18.3381 78.2039 18.8647C77.7321 19.372 77.4738 19.8544 77.4288 20.3119C77.3838 20.7694 77.7029 21.1451 78.386 21.4391C79.0547 21.4398 79.8467 21.318 80.762 21.0736C81.6945 20.8076 82.6322 20.5017 83.5751 20.1558C84.5351 19.7883 85.4563 19.4253 86.3387 19.0668C87.2188 18.6889 87.9408 18.3885 88.5047 18.1654L88.8912 18.4448C88.53 19.0572 87.8916 19.6527 86.9758 20.2313C86.0601 20.81 85.0578 21.3201 83.9687 21.7617C82.8775 22.1838 81.804 22.5056 80.7483 22.727C79.6904 22.929 78.8385 22.9594 78.1929 22.8184ZM83.8519 10.8915C83.8303 10.8744 83.695 10.9787 83.446 11.2043C83.1947 11.4106 82.8835 11.6927 82.5123 12.0505C82.1582 12.3868 81.7699 12.7663 81.3472 13.1892C80.9417 13.5904 80.5631 13.9688 80.2113 14.3244C79.8788 14.6778 79.6001 14.9856 79.375 15.2478C79.1477 15.4906 79.0535 15.6097 79.0923 15.6052C79.4094 15.6272 79.8026 15.5421 80.2718 15.3497C80.7581 15.1357 81.2473 14.8624 81.7395 14.5298C82.251 14.1948 82.73 13.8342 83.1766 13.4479C83.6209 13.0421 83.9596 12.6585 84.1928 12.2971C84.4453 11.9334 84.5569 11.6254 84.5275 11.3732C84.5175 11.1187 84.2923 10.9582 83.8519 10.8915Z" fill="white"/>
<path d="M89.2217 21.5328C89.1806 21.5179 89.1546 21.2948 89.1437 20.8635C89.1499 20.4105 89.163 19.8486 89.1831 19.1777C89.2032 18.5068 89.2445 17.7646 89.307 16.9511C89.3695 16.1376 89.4462 15.3618 89.5371 14.6236C89.6258 13.8661 89.7355 13.2044 89.8662 12.6386C90.014 12.0511 90.1724 11.6394 90.3416 11.4034C90.4615 11.2517 90.5973 11.2359 90.749 11.3559C90.8983 11.4564 91.0522 11.5958 91.2106 11.774C91.3668 11.9327 91.5218 12.0818 91.6757 12.2212C91.8273 12.3412 91.974 12.3339 92.1156 12.1994C92.5706 11.3795 93.0786 10.5927 93.6397 9.8391C94.2179 9.06381 94.8752 8.37761 95.6118 7.7805C95.6827 7.71325 95.8859 7.60108 96.2215 7.44397C96.5549 7.26747 96.9379 7.09501 97.3705 6.9266C97.8009 6.73879 98.2443 6.57894 98.7009 6.44707C99.1746 6.29354 99.5774 6.20725 99.9095 6.1882C100.259 6.1475 100.502 6.20766 100.638 6.36869C100.792 6.50806 100.766 6.78644 100.559 7.20384C99.3971 7.35892 98.3503 7.82506 97.4184 8.60225C96.4865 9.37944 95.6502 10.3028 94.9097 11.3723C94.1692 12.4418 93.5164 13.5895 92.9515 14.8155C92.3842 16.0221 91.8952 17.141 91.4845 18.172C91.0932 19.2008 90.7602 20.0557 90.4857 20.7366C90.2305 21.4152 90.0253 21.7636 89.8701 21.7817C89.8507 21.7839 89.7589 21.7553 89.5947 21.6958C89.4281 21.6169 89.3038 21.5625 89.2217 21.5328Z" fill="white"/>
<path d="M102.84 19.9453C103.337 17.2918 103.819 15.1808 104.285 13.6124C104.768 12.0223 105.188 10.9017 105.545 10.2506C105.921 9.59715 106.199 9.3681 106.379 9.5634C106.559 9.75871 106.603 10.3042 106.511 11.1998C106.438 12.0931 106.187 13.312 105.757 14.8565C105.345 16.3794 104.715 18.1439 103.867 20.15C103.719 20.2263 103.536 20.2575 103.318 20.2436C103.1 20.2297 102.941 20.1302 102.84 19.9453ZM106.301 5.35464C106.251 5.26216 106.211 5.08982 106.182 4.83763C106.153 4.58543 106.154 4.42797 106.186 4.36524C106.614 4.15803 106.951 4.09906 107.198 4.18832C107.444 4.27758 107.61 4.43522 107.695 4.66124C107.778 4.86785 107.796 5.10178 107.748 5.36302C107.719 5.62201 107.635 5.82844 107.495 5.98233C107.354 6.11682 107.172 6.15771 106.949 6.10498C106.744 6.0306 106.528 5.78048 106.301 5.35464Z" fill="white"/>
<path d="M121.261 17.7981C121.128 17.1647 121.103 16.5285 121.186 15.8896C121.286 15.2291 121.436 14.5823 121.638 13.9492C121.856 13.2945 122.086 12.6483 122.326 12.0108C122.584 11.3515 122.795 10.7173 122.96 10.1082C123.123 9.47967 123.22 8.87845 123.251 8.30455C123.28 7.71125 123.175 7.14347 122.934 6.60123C122.429 6.48317 121.871 6.58755 121.26 6.91437C120.669 7.23893 120.054 7.70382 119.417 8.30903C118.778 8.89484 118.12 9.58104 117.445 10.3676C116.787 11.1326 116.141 11.9158 115.507 12.7172C114.89 13.497 114.298 14.2443 113.733 14.9592C113.167 15.674 112.647 16.2753 112.173 16.7632C111.717 17.2294 111.32 17.541 110.985 17.6981C110.647 17.8358 110.399 17.7369 110.242 17.4012C110.22 17.3841 110.299 17.1292 110.477 16.6364C110.673 16.122 110.904 15.4856 111.169 14.7271C111.454 13.9663 111.761 13.144 112.091 12.26C112.44 11.3738 112.767 10.5492 113.071 9.78618C113.373 9.00376 113.64 8.34339 113.872 7.80507C114.104 7.26675 114.257 6.97367 114.33 6.92582C114.769 7.14993 115.008 7.42688 115.046 7.75668C115.102 8.06482 115.092 8.40027 115.016 8.76304C114.938 9.1064 114.842 9.46173 114.728 9.82902C114.632 10.194 114.654 10.5455 114.792 10.8834C115.077 10.6338 115.47 10.2931 115.97 9.86115C116.488 9.40757 117.043 8.93977 117.635 8.45775C118.247 7.97346 118.88 7.49661 119.533 7.02721C120.206 6.55554 120.84 6.17682 121.436 5.89106C122.03 5.58589 122.568 5.39534 123.05 5.31941C123.553 5.24121 123.938 5.34374 124.207 5.627C124.476 5.91027 124.604 6.41645 124.591 7.14555C124.594 7.85299 124.406 8.84834 124.024 10.1316C123.982 10.2742 123.875 10.6209 123.703 11.1719C123.549 11.7011 123.371 12.2823 123.169 12.9154C122.985 13.5268 122.807 14.1079 122.635 14.6589C122.48 15.1881 122.382 15.5241 122.339 15.6666C122.329 15.7465 122.317 15.8954 122.303 16.1133C122.306 16.3096 122.303 16.5361 122.294 16.7928C122.282 17.0301 122.251 17.2697 122.201 17.5115C122.148 17.734 122.07 17.9102 121.967 18.0402C121.864 18.1701 121.727 18.1762 121.556 18.0585C121.383 17.9214 121.285 17.8346 121.261 17.7981Z" fill="white"/>
<path d="M128.291 16.6246C127.78 16.2909 127.452 15.7491 127.305 14.9993C127.178 14.2472 127.186 13.3812 127.327 12.4012C127.488 11.4189 127.76 10.3843 128.145 9.29732C128.547 8.18867 129.033 7.12917 129.603 6.11883C130.171 5.08908 130.81 4.15925 131.52 3.32934C132.227 2.48003 132.958 1.83441 133.712 1.3925C134.465 0.93118 135.226 0.714624 135.996 0.742828C136.764 0.751633 137.504 1.10785 138.215 1.81148C138.66 2.25125 138.95 2.71881 139.086 3.21416C139.221 3.69011 139.27 4.19564 139.234 4.73075C139.196 5.24645 139.101 5.78834 138.951 6.35641C138.799 6.90508 138.648 7.46346 138.498 8.03153C138.367 8.59734 138.267 9.16946 138.196 9.74788C138.146 10.324 138.193 10.8986 138.338 11.4716C138.521 12.1974 138.902 12.5955 139.48 12.6657C140.059 12.7359 140.724 12.6191 141.475 12.3153C142.245 12.0091 143.04 11.5724 143.859 11.005C144.677 10.4377 145.428 9.87824 146.111 9.32671C146.813 8.77292 147.387 8.29316 147.831 7.88742C148.295 7.47943 148.526 7.27543 148.526 7.27543C149.056 7.09571 149.361 7.09946 149.442 7.28667C149.54 7.45223 149.465 7.73626 149.217 8.13878C148.986 8.51964 148.616 8.97566 148.108 9.50684C147.598 10.0186 147.008 10.5297 146.34 11.0402C145.672 11.5507 144.951 12.028 144.177 12.4722C143.403 12.9164 142.636 13.2516 141.876 13.4778C141.113 13.6847 140.375 13.7609 139.661 13.7065C138.964 13.6305 138.36 13.3469 137.851 12.8557C137.61 12.6478 137.418 12.4342 137.275 12.2149C137.15 11.9935 136.962 11.809 136.709 11.6615C136.449 11.967 136.142 12.3666 135.787 12.8603C135.429 13.3346 135.034 13.8231 134.601 14.3259C134.185 14.8069 133.728 15.2731 133.23 15.7244C132.751 16.1735 132.242 16.5278 131.702 16.7874C131.162 17.047 130.598 17.1816 130.009 17.1912C129.44 17.1986 128.867 17.0097 128.291 16.6246ZM128.496 15.5979C128.743 16.1983 129.165 16.4441 129.762 16.3352C130.356 16.2069 131.02 15.8248 131.752 15.1889C132.484 14.553 133.222 13.7196 133.967 12.6889C134.71 11.6389 135.354 10.5019 135.9 9.27819C136.443 8.03505 136.815 6.75293 137.015 5.43183C137.234 4.10847 137.184 2.83617 136.865 1.61493C136.356 1.3006 135.773 1.35875 135.115 1.78935C134.456 2.20056 133.773 2.84052 133.068 3.70924C132.38 4.55629 131.711 5.55854 131.059 6.71599C130.425 7.85178 129.88 8.99679 129.424 10.151C128.967 11.2859 128.638 12.3467 128.438 13.3334C128.258 14.318 128.277 15.0728 128.496 15.5979Z" fill="white"/>
<path d="M82.4793 55.5422C82.3507 55.2819 82.2899 55.0137 82.2971 54.7376C82.3213 54.4398 82.3747 54.1386 82.4572 53.834C82.5397 53.5295 82.633 53.2335 82.7371 52.946C82.8607 52.6564 82.9562 52.3798 83.0238 52.1163C83.0982 51.9109 83.2138 51.5534 83.3707 51.0435C83.5447 50.5119 83.7165 49.961 83.8859 49.3907C84.0726 48.7987 84.2432 48.2381 84.3978 47.7088C84.5524 47.1795 84.6669 46.8122 84.7412 46.6069C84.8305 46.3605 84.7874 46.1591 84.6118 46.0026C84.4534 45.8244 84.2767 45.6582 84.0818 45.504C83.9062 45.3475 83.7598 45.1876 83.6424 45.0243C83.5445 44.8587 83.5983 44.646 83.804 44.386C83.9239 44.2344 84.0884 44.1268 84.2972 44.0631C84.5061 43.9994 84.7258 43.9443 84.9564 43.8978C85.1846 43.8318 85.3913 43.7488 85.5762 43.6485C85.7612 43.5483 85.8983 43.375 85.9875 43.1287L88.5722 36.4564C88.3754 35.9484 88.276 35.5176 88.2741 35.1639C88.2916 34.8079 88.3729 34.4936 88.5181 34.2211C88.6827 33.9463 88.8981 33.6852 89.1642 33.4379C89.4497 33.1883 89.7706 32.9051 90.127 32.5883C92.089 32.0449 94.0179 31.5546 95.9136 31.1174C97.8287 30.6778 99.8104 30.3878 101.859 30.2474C101.977 30.2532 102.133 30.3235 102.326 30.4584C102.516 30.5738 102.681 30.7218 102.82 30.9022C102.957 31.0632 103.025 31.2322 103.026 31.409C103.047 31.5836 102.934 31.7147 102.689 31.8023C102.669 31.8046 102.61 31.8017 102.511 31.7936C102.409 31.7661 102.298 31.7397 102.177 31.7145C102.056 31.6893 101.945 31.6629 101.844 31.6354C101.742 31.6079 101.682 31.5953 101.662 31.5976C100.11 31.7785 98.7641 31.9551 97.624 32.1273C96.484 32.2995 95.495 32.5033 94.6573 32.7386C93.8367 32.9522 93.1306 33.2213 92.5392 33.5459C91.9672 33.8682 91.4648 34.2807 91.0318 34.7834C90.6159 35.2645 90.233 35.8597 89.8831 36.5691C89.5526 37.2761 89.2197 38.131 88.8843 39.1336C88.7184 39.5659 88.5696 39.9765 88.438 40.3654C88.3212 40.7133 88.2336 41.0578 88.175 41.3989C88.1142 41.7206 88.135 41.9837 88.2375 42.188C89.3465 42.2554 90.4403 42.1082 91.519 41.7465C92.617 41.3825 93.7095 40.9701 94.7962 40.5091C95.883 40.0482 96.9742 39.626 98.07 39.2426C99.183 38.8376 100.32 38.6363 101.48 38.6387L101.558 39.308C101.563 39.3468 101.214 39.4759 100.512 39.6954C99.8077 39.8954 98.9065 40.1775 97.8085 40.5414C96.7276 40.8837 95.537 41.2978 94.2369 41.7836C92.9539 42.2478 91.7261 42.7645 90.5537 43.3338C89.3813 43.903 88.3611 44.5136 87.4932 45.1653C86.6254 45.817 86.0638 46.4822 85.8087 47.1609C85.3349 48.4942 84.8947 49.863 84.4881 51.2672C84.0793 52.6519 83.7201 54.0408 83.4105 55.4336C83.3145 55.6218 83.162 55.7477 82.9532 55.8114C82.7637 55.8728 82.6057 55.7831 82.4793 55.5422Z" fill="white"/>
<path d="M106.079 52.7912C105.475 52.665 104.995 52.426 104.639 52.0742C104.3 51.7007 104.054 51.2772 103.901 50.8035C103.747 50.3298 103.669 49.8276 103.666 49.2971C103.681 48.7448 103.737 48.2172 103.836 47.7141C104.345 47.0254 104.913 46.2416 105.538 45.3625C106.18 44.4618 106.863 43.5759 107.588 42.7049C108.312 41.834 109.072 41.0178 109.868 40.2564C110.682 39.4734 111.524 38.8542 112.395 38.3987C112.689 38.2267 112.933 38.2081 113.126 38.343C113.336 38.4562 113.497 38.6634 113.611 38.9648C113.725 39.2661 113.796 39.6217 113.824 40.0313C113.871 40.4387 113.889 40.8398 113.876 41.2346C113.863 41.6294 113.826 41.9876 113.765 42.3093C113.704 42.631 113.632 42.8557 113.549 42.9834C113.348 43.2822 112.929 43.6554 112.293 44.1032C111.676 44.5486 110.987 45.042 110.224 45.5831C109.459 46.1049 108.696 46.6461 107.935 47.2067C107.175 47.7673 106.56 48.3109 106.09 48.8375C105.619 49.3448 105.36 49.8272 105.315 50.2847C105.27 50.7422 105.589 51.1179 106.272 51.4119C106.941 51.4126 107.733 51.2908 108.648 51.0464C109.581 50.7804 110.519 50.4745 111.462 50.1286C112.422 49.7611 113.343 49.3981 114.225 49.0396C115.105 48.6617 115.827 48.3612 116.391 48.1382L116.778 48.4176C116.416 49.0299 115.778 49.6254 114.862 50.2041C113.947 50.7828 112.944 51.2929 111.855 51.7345C110.764 52.1566 109.69 52.4784 108.635 52.6998C107.577 52.9017 106.725 52.9322 106.079 52.7912ZM111.738 40.8643C111.717 40.8472 111.581 40.9514 111.332 41.1771C111.081 41.3834 110.77 41.6654 110.399 42.0233C110.045 42.3596 109.656 42.7391 109.234 43.162C108.828 43.5632 108.45 43.9416 108.098 44.2972C107.765 44.6506 107.487 44.9584 107.261 45.2206C107.034 45.4634 106.94 45.5825 106.979 45.578C107.296 45.6 107.689 45.5148 108.158 45.3225C108.645 45.1085 109.134 44.8352 109.626 44.5025C110.137 44.1676 110.616 43.807 111.063 43.4206C111.507 43.0149 111.846 42.6313 112.079 42.2699C112.332 41.9061 112.443 41.5982 112.414 41.346C112.404 41.0915 112.179 40.931 111.738 40.8643Z" fill="white"/>
<path d="M128.736 49.7961C127.94 49.3777 127.335 48.8191 126.919 48.1203C126.501 47.4022 126.165 46.6253 125.91 45.7898L125.59 45.8271C124.168 47.2907 122.912 48.4104 121.822 49.1863C120.753 49.9599 119.829 50.4707 119.052 50.7186C118.272 50.9471 117.643 50.9516 117.165 50.732C116.688 50.5124 116.351 50.1583 116.157 49.6698C115.979 49.1596 115.937 48.5451 116.03 47.8263C116.124 47.1076 116.343 46.3741 116.688 45.626C117.031 44.8584 117.505 44.115 118.109 43.3956C118.714 42.6763 119.429 42.062 120.254 41.5529C121.099 41.0414 122.049 40.675 123.105 40.4537C124.178 40.2106 125.356 40.1913 126.638 40.3958L126.917 40.0093L129.926 31.6653C130.459 31.6819 130.797 31.8785 130.939 32.2552C131.081 32.6319 131.121 33.0598 131.059 33.5389C131.017 34.0159 130.914 34.4898 130.753 34.9609C130.609 35.4103 130.499 35.7377 130.425 35.943C130.38 36.0662 130.29 36.3028 130.154 36.653C130.037 37.0009 129.89 37.4212 129.711 37.9139C129.55 38.385 129.372 38.8874 129.179 39.4212C128.985 39.955 128.799 40.4683 128.621 40.961C128.46 41.4321 128.312 41.8524 128.178 42.222C128.042 42.5721 127.96 42.7979 127.933 42.8995C127.667 43.658 127.591 44.4435 127.706 45.256C127.837 46.0469 127.975 46.8075 128.119 47.5379C128.238 47.8781 128.427 48.151 128.687 48.3567C128.944 48.5429 129.211 48.7184 129.485 48.883C129.777 49.0259 130.06 49.17 130.332 49.3152C130.624 49.4581 130.872 49.6455 131.076 49.8774C131.028 50.1386 130.887 50.2828 130.655 50.3099C130.424 50.3565 130.177 50.3459 129.914 50.2783C129.65 50.2107 129.404 50.1215 129.174 50.0105C128.945 49.8996 128.799 49.8281 128.736 49.7961ZM117.73 49.7519C117.846 50.0726 118.148 50.1357 118.637 49.9411C119.144 49.7443 119.723 49.3917 120.371 48.8835C121.018 48.3559 121.693 47.7365 122.396 47.0252C123.119 46.3117 123.755 45.6084 124.304 44.9152C124.871 44.2198 125.299 43.5898 125.588 43.0253C125.895 42.4586 125.966 42.057 125.801 41.8206C125.161 41.5609 124.473 41.4741 123.736 41.56C122.998 41.6459 122.277 41.8677 121.571 42.2252C120.883 42.5611 120.228 43.0111 119.605 43.5752C119 44.1177 118.501 44.7265 118.107 45.4016C117.734 46.0744 117.493 46.7907 117.384 47.5505C117.294 48.2886 117.409 49.0224 117.73 49.7519Z" fill="white"/>
<path d="M134.393 49.4906C133.54 49.2558 132.968 48.8211 132.678 48.1863C132.407 47.5494 132.332 46.8207 132.453 46.0005C132.571 45.1608 132.843 44.2836 133.267 43.369C133.689 42.4349 134.178 41.5717 134.735 40.7793C135.291 39.9868 135.861 39.3108 136.445 38.7512C137.046 38.1699 137.576 37.823 138.034 37.7106C139.219 37.4151 140.17 37.3928 140.888 37.6434C141.622 37.8724 142.151 38.2729 142.473 38.8449C142.795 39.4169 142.946 40.1171 142.924 40.9454C142.901 41.7544 142.733 42.59 142.42 43.4523C142.127 44.3123 141.705 45.158 141.153 45.9892C140.62 46.8181 139.996 47.5397 139.281 48.154C138.584 48.7466 137.818 49.1799 136.985 49.454C136.149 49.7087 135.285 49.7209 134.393 49.4906ZM133.88 47.8693C134.108 48.472 134.478 48.7827 134.992 48.8015C135.503 48.8009 136.07 48.607 136.693 48.2197C137.334 47.8108 137.988 47.2626 138.655 46.5753C139.32 45.8686 139.911 45.1212 140.429 44.3333C140.966 43.5432 141.387 42.7666 141.691 42.0036C142.012 41.2189 142.132 40.5561 142.049 40.0151C141.986 39.4719 141.676 39.0951 141.121 38.8845C140.583 38.6523 139.722 38.6936 138.54 39.0084C138.297 39.2923 137.984 39.6434 137.601 40.0618C137.215 40.4607 136.814 40.9007 136.398 41.3818C136.001 41.8606 135.609 42.3782 135.222 42.9346C134.832 43.4716 134.503 44.0212 134.234 44.5835C133.966 45.1457 133.785 45.7075 133.693 46.2688C133.621 46.8278 133.683 47.3613 133.88 47.8693Z" fill="white"/>
<path d="M145.451 48.2016C145.41 48.1868 145.384 47.9637 145.373 47.5324C145.38 47.0794 145.393 46.5174 145.413 45.8465C145.433 45.1756 145.474 44.4334 145.537 43.6199C145.599 42.8065 145.676 42.0306 145.767 41.2925C145.855 40.5349 145.965 39.8733 146.096 39.3074C146.244 38.72 146.402 38.3082 146.571 38.0722C146.691 37.9206 146.827 37.9048 146.979 38.0247C147.128 38.1253 147.282 38.2647 147.44 38.4428C147.596 38.6016 147.751 38.7507 147.905 38.89C148.057 39.01 148.204 39.0028 148.345 38.8683C148.8 38.0483 149.308 37.2616 149.869 36.508C150.448 35.7327 151.105 35.0465 151.842 34.4494C151.912 34.3821 152.116 34.2699 152.451 34.1128C152.785 33.9363 153.168 33.7639 153.6 33.5955C154.031 33.4076 154.474 33.2478 154.931 33.1159C155.404 32.9624 155.807 32.8761 156.139 32.8571C156.488 32.8164 156.731 32.8765 156.868 33.0375C157.022 33.1769 156.995 33.4553 156.788 33.8727C155.627 34.0278 154.58 34.4939 153.648 35.2711C152.716 36.0483 151.88 36.9716 151.139 38.0411C150.399 39.1106 149.746 40.2584 149.181 41.4844C148.614 42.691 148.125 43.8098 147.714 44.8409C147.323 45.8697 146.99 46.7245 146.715 47.4054C146.46 48.0841 146.255 48.4324 146.1 48.4505C146.08 48.4528 145.989 48.4241 145.824 48.3646C145.658 48.2857 145.534 48.2314 145.451 48.2016Z" fill="white"/>
<path d="M161.224 46.3631C160.619 46.237 160.139 45.998 159.783 45.6462C159.445 45.2727 159.199 44.8491 159.045 44.3754C158.892 43.9017 158.813 43.3996 158.811 42.869C158.825 42.3168 158.881 41.7891 158.98 41.286C159.49 40.5974 160.057 39.8135 160.682 38.9344C161.324 38.0337 162.007 37.1479 162.732 36.2769C163.456 35.4059 164.216 34.5898 165.013 33.8284C165.826 33.0454 166.668 32.4261 167.539 31.9706C167.834 31.7987 168.077 31.7801 168.27 31.9149C168.48 32.0281 168.642 32.2354 168.755 32.5367C168.869 32.8381 168.94 33.1936 168.968 33.6033C169.016 34.0107 169.033 34.4117 169.02 34.8065C169.007 35.2013 168.97 35.5596 168.909 35.8813C168.848 36.203 168.776 36.4277 168.693 36.5554C168.492 36.8541 168.073 37.2274 167.437 37.6751C166.82 38.1206 166.131 38.6139 165.368 39.1551C164.603 39.6769 163.84 40.218 163.08 40.7786C162.319 41.3392 161.704 41.8828 161.235 42.4095C160.763 42.9167 160.504 43.3991 160.459 43.8566C160.414 44.3141 160.733 44.6899 161.417 44.9838C162.085 44.9845 162.877 44.8627 163.793 44.6184C164.725 44.3524 165.663 44.0464 166.606 43.7006C167.566 43.333 168.487 42.97 169.369 42.6115C170.249 42.2336 170.971 41.9332 171.535 41.7101L171.922 41.9895C171.561 42.6019 170.922 43.1974 170.006 43.7761C169.091 44.3547 168.088 44.8648 166.999 45.3064C165.908 45.7286 164.835 46.0503 163.779 46.2717C162.721 46.4737 161.869 46.5042 161.224 46.3631ZM166.883 34.4363C166.861 34.4191 166.726 34.5234 166.477 34.749C166.225 34.9553 165.914 35.2374 165.543 35.5953C165.189 35.9315 164.8 36.311 164.378 36.7339C163.972 37.1351 163.594 37.5135 163.242 37.8692C162.909 38.2225 162.631 38.5303 162.406 38.7925C162.178 39.0353 162.084 39.1544 162.123 39.1499C162.44 39.1719 162.833 39.0868 163.302 38.8944C163.789 38.6805 164.278 38.4071 164.77 38.0745C165.282 37.7396 165.761 37.3789 166.207 36.9926C166.652 36.5869 166.99 36.2033 167.223 35.8418C167.476 35.4781 167.588 35.1701 167.558 34.9179C167.548 34.6635 167.323 34.5029 166.883 34.4363Z" fill="white"/>
<path d="M182.757 43.853C182.625 43.2195 182.6 42.5834 182.682 41.9445C182.782 41.284 182.933 40.6372 183.135 40.0041C183.353 39.3494 183.583 38.7032 183.823 38.0657C184.08 37.4064 184.292 36.7722 184.457 36.1631C184.619 35.5346 184.716 34.9333 184.748 34.3594C184.777 33.7661 184.671 33.1984 184.431 32.6561C183.926 32.5381 183.368 32.6424 182.757 32.9693C182.166 33.2938 181.551 33.7587 180.914 34.3639C180.274 34.9497 179.617 35.6359 178.942 36.4225C178.284 37.1874 177.638 37.9706 177.003 38.7721C176.386 39.5519 175.795 40.2992 175.23 41.0141C174.664 41.7289 174.144 42.3302 173.67 42.8181C173.213 43.2843 172.817 43.5959 172.481 43.753C172.143 43.8907 171.896 43.7918 171.739 43.4561C171.717 43.439 171.796 43.1841 171.974 42.6913C172.17 42.1769 172.4 41.5405 172.666 40.782C172.951 40.0212 173.258 39.1989 173.588 38.3149C173.937 37.4287 174.263 36.6041 174.568 35.8411C174.87 35.0586 175.137 34.3983 175.369 33.86C175.601 33.3216 175.754 33.0286 175.827 32.9807C176.266 33.2048 176.505 33.4818 176.543 33.8116C176.599 34.1197 176.589 34.4552 176.513 34.8179C176.435 35.1613 176.339 35.5166 176.224 35.8839C176.129 36.2489 176.151 36.6004 176.288 36.9383C176.574 36.6887 176.967 36.348 177.467 35.916C177.984 35.4625 178.539 34.9947 179.132 34.5126C179.744 34.0283 180.377 33.5515 181.03 33.0821C181.702 32.6104 182.337 32.2317 182.933 31.9459C183.526 31.6408 184.065 31.4502 184.547 31.3743C185.049 31.2961 185.435 31.3986 185.704 31.6819C185.973 31.9652 186.101 32.4713 186.087 33.2004C186.091 33.9079 185.902 34.9032 185.521 36.1865C185.479 36.3291 185.372 36.6758 185.2 37.2268C185.045 37.756 184.867 38.3372 184.666 38.9702C184.481 39.5816 184.303 40.1628 184.132 40.7137C183.977 41.243 183.879 41.5789 183.836 41.7215C183.826 41.8014 183.814 41.9503 183.8 42.1682C183.803 42.3645 183.8 42.5909 183.791 42.8477C183.779 43.085 183.748 43.3246 183.697 43.5664C183.645 43.7889 183.567 43.9651 183.464 44.095C183.361 44.225 183.224 44.2311 183.053 44.1134C182.88 43.9763 182.781 43.8895 182.757 43.853Z" fill="white"/>
<path d="M200.43 41.1145C198.99 39.552 197.827 38.262 196.941 37.2444C196.053 36.2074 195.335 35.4456 194.787 34.9589C194.239 34.4722 193.81 34.2567 193.502 34.3123C193.194 34.3679 192.89 34.7081 192.589 35.3331C192.305 35.9364 191.966 36.8215 191.571 37.9883C191.176 39.1552 190.618 40.6065 189.896 42.3424C189.805 42.5694 189.694 42.7199 189.565 42.7939C189.453 42.8463 189.337 42.8598 189.216 42.8346C189.093 42.79 188.975 42.7054 188.862 42.5809C188.749 42.4564 188.655 42.32 188.578 42.1716C188.498 41.9844 188.523 41.6078 188.653 41.042C188.782 40.4568 188.985 39.7547 189.263 38.9358C189.558 38.0951 189.903 37.1701 190.296 36.1608C190.707 35.1297 191.135 34.077 191.58 33.0026C192.044 31.926 192.5 30.8602 192.947 29.8052C193.414 28.748 193.841 27.774 194.229 26.8832C194.634 25.9708 194.993 25.1719 195.306 24.4865C195.62 23.8011 195.846 23.293 195.984 22.9623C196.109 22.8494 196.243 22.8239 196.388 22.8857C196.552 22.9452 196.693 23.0566 196.811 23.2199C196.945 23.3615 197.043 23.527 197.104 23.7165C197.164 23.8866 197.161 24.0344 197.097 24.1598L195.014 29.0629L195.092 29.7322C195.511 29.7817 196.012 29.6938 196.595 29.4685C197.196 29.2215 197.827 28.9021 198.489 28.5103C199.171 28.1162 199.856 27.6725 200.546 27.1792C201.234 26.6665 201.883 26.168 202.495 25.6837C203.125 25.1777 203.68 24.7099 204.161 24.2803C204.658 23.829 205.049 23.4688 205.332 23.1998C205.569 23.0346 205.787 22.9698 205.988 23.0054C206.208 23.0387 206.376 23.1274 206.491 23.2712C206.625 23.4129 206.695 23.5915 206.701 23.8072C206.706 24.0228 206.632 24.2281 206.478 24.4231C206 25.049 205.407 25.6098 204.698 26.1054C204.006 26.5793 203.262 27.0298 202.466 27.4568C201.668 27.8645 200.85 28.2647 200.01 28.6574C199.189 29.0285 198.399 29.4253 197.642 29.8478C196.885 30.2704 196.201 30.7238 195.589 31.208C194.976 31.6923 194.49 32.2406 194.129 32.853C194.406 33.037 194.775 33.338 195.237 33.7562C195.716 34.1526 196.23 34.6039 196.781 35.1099C197.351 35.6137 197.925 36.1563 198.504 36.7377C199.081 37.2997 199.598 37.8588 200.057 38.415C200.532 38.9495 200.924 39.4445 201.233 39.9001C201.558 40.3341 201.737 40.6868 201.769 40.9584L201.847 41.6277C201.701 41.7234 201.559 41.7695 201.421 41.7659C201.3 41.7407 201.176 41.696 201.051 41.632C200.926 41.568 200.809 41.4931 200.7 41.4074C200.609 41.3001 200.519 41.2024 200.43 41.1145Z" fill="white"/>
<path d="M211.683 40.4812C210.829 40.2464 210.258 39.8116 209.967 39.1769C209.696 38.5399 209.621 37.8113 209.742 36.991C209.86 36.1513 210.132 35.2742 210.556 34.3595C210.978 33.4255 211.467 32.5622 212.024 31.7698C212.58 30.9774 213.151 30.3014 213.734 29.7417C214.335 29.1605 214.865 28.8136 215.324 28.7011C216.508 28.4057 217.459 28.3833 218.177 28.634C218.911 28.863 219.44 29.2634 219.762 29.8354C220.084 30.4074 220.235 31.1076 220.213 31.936C220.19 32.7449 220.022 33.5806 219.709 34.4429C219.416 35.3029 218.994 36.1485 218.442 36.9797C217.909 37.8087 217.285 38.5303 216.57 39.1445C215.873 39.7371 215.107 40.1705 214.274 40.4446C213.438 40.6993 212.575 40.7115 211.683 40.4812ZM211.169 38.8598C211.397 39.4625 211.767 39.7733 212.281 39.7921C212.792 39.7915 213.359 39.5975 213.983 39.2103C214.623 38.8013 215.277 38.2532 215.944 37.5658C216.609 36.8591 217.2 36.1118 217.718 35.3239C218.255 34.5337 218.676 33.7571 218.98 32.9941C219.302 32.2094 219.421 31.5466 219.338 31.0057C219.275 30.4625 218.965 30.0856 218.41 29.8751C217.872 29.6429 217.011 29.6842 215.829 29.999C215.587 30.2828 215.274 30.6339 214.89 31.0523C214.504 31.4512 214.103 31.8913 213.687 32.3723C213.29 32.8511 212.899 33.3687 212.511 33.9252C212.121 34.4622 211.792 35.0118 211.524 35.574C211.255 36.1363 211.074 36.698 210.983 37.2593C210.91 37.8184 210.972 38.3519 211.169 38.8598Z" fill="white"/>
</svg>
