<svg width="28" height="28" viewBox="0 0 28 28" fill="none" xmlns="http://www.w3.org/2000/svg">
<path fill-rule="evenodd" clip-rule="evenodd" d="M26.0445 13.5516C26.0445 20.4513 20.4513 26.0445 13.5516 26.0445C6.65198 26.0445 1.05872 20.4513 1.05872 13.5516C1.05872 6.65198 6.65198 1.05872 13.5516 1.05872C20.4513 1.05872 26.0445 6.65198 26.0445 13.5516ZM27.1032 13.5516C27.1032 21.036 21.036 27.1032 13.5516 27.1032C6.06727 27.1032 0 21.036 0 13.5516C0 6.06727 6.06727 0 13.5516 0C21.036 0 27.1032 6.06727 27.1032 13.5516ZM13.7153 9.41389C16.3688 8.37275 18.74 7.4488 18.9847 7.36078C19.2563 7.26306 19.5853 7.20016 19.8298 7.19927C20.1948 7.19798 20.2507 7.21839 20.4628 7.43002C20.646 7.61276 20.6958 7.7182 20.6969 7.92512C20.6977 8.06975 20.1234 11.0767 19.4207 14.6072C18.213 20.6743 18.1032 21.2961 17.7369 21.5553C17.6789 21.5963 17.6145 21.6283 17.5383 21.6713C17.2587 21.829 16.8059 21.8547 16.4457 21.7333C16.0039 21.5844 14.6817 20.6074 11.3885 17.9965C10.617 17.3848 9.98566 16.8599 9.98566 16.8301C9.98566 16.8004 11.2791 15.6155 12.8599 14.1971C15.3712 11.9436 15.7754 11.5829 15.7645 11.5698C15.7616 11.5663 15.7296 11.5872 15.6999 11.6038C15.5935 11.6632 12.7339 13.4661 9.9769 15.2119L8.39411 16.2141L6.45258 15.5549C5.38468 15.1924 4.41087 14.8216 4.28851 14.7309C3.72154 14.3107 3.72154 13.6076 4.28851 13.1852C4.41087 13.094 5.49643 12.6341 6.70086 12.1631C7.90529 11.6922 11.0618 10.4551 13.7153 9.41389ZM18.6425 14.3986C19.32 10.9882 19.8743 8.14194 19.8743 8.07344C19.8743 7.95168 19.8151 7.93502 19.5932 7.99423C19.5327 8.01034 16.1606 9.32368 12.0997 10.9128C5.91784 13.3318 4.71293 13.8244 4.69555 13.9398C4.69081 13.9714 4.68156 13.9947 4.68416 14.0166C4.69522 14.1096 4.92017 14.1771 6.61306 14.7475L8.30453 15.3173L12.8209 12.4566C15.3049 10.8831 17.4487 9.56501 17.5851 9.52745C18.0468 9.40023 18.4274 9.71231 18.3331 10.1408C18.3291 10.159 18.3254 10.176 18.3209 10.1928C18.2567 10.4343 18.0339 10.6337 14.4496 13.8507C12.6535 15.4628 11.1915 16.789 11.2007 16.798C11.2099 16.8069 12.4487 17.7542 13.9534 18.9032C16.2551 20.6606 16.7249 20.9922 16.9132 20.9922C17.124 20.9922 17.4107 20.8003 17.4107 20.6591C17.4107 20.6261 17.965 17.8089 18.6425 14.3986Z" fill="white"/>
</svg>
