<svg width="28" height="28" viewBox="0 0 28 28" fill="none" xmlns="http://www.w3.org/2000/svg">
<path fill-rule="evenodd" clip-rule="evenodd" d="M13.294 0.37568C10.6858 0.630971 8.27528 1.59158 6.16177 3.21787C5.13254 4.00982 3.79593 5.49817 3.02352 6.71228C2.68993 7.23664 2.04057 8.56535 1.80794 9.19946C0.732537 12.1314 0.730583 15.5531 1.80271 18.4623C1.99957 18.9964 2.59388 20.2519 2.87527 20.7279L3.03123 20.9919L2.27187 23.7334C1.85423 25.2413 1.5125 26.5405 1.5125 26.6207C1.5125 26.824 1.71163 27.0342 1.93516 27.0669C2.07581 27.0875 2.75703 26.8975 4.78147 26.2733C6.24524 25.8219 7.47254 25.4526 7.50874 25.4526C7.54493 25.4526 7.89267 25.6175 8.28146 25.819C11.6498 27.5651 15.6171 27.8246 19.1525 26.5299C19.7871 26.2975 21.1169 25.6486 21.6417 25.3153C23.3383 24.2377 24.9166 22.6607 25.9951 20.9655C26.3287 20.4411 26.9781 19.1124 27.2107 18.4783C27.4708 17.7692 27.748 16.6857 27.8844 15.8449C27.9808 15.2507 28 14.9171 28 13.8389C28 12.3713 27.9156 11.6781 27.5828 10.4136C27.3329 9.4641 27.0996 8.84487 26.6358 7.90005C25.9374 6.47763 25.2113 5.46935 24.0485 4.30745C22.8857 3.1456 21.8765 2.42006 20.453 1.72229C19.1512 1.08422 17.9509 0.703556 16.5434 0.482315C15.7668 0.360266 14.0327 0.303358 13.294 0.37568ZM16.5434 1.53262C19.2464 2.0006 21.5505 3.21745 23.4649 5.18814C25.2897 7.0666 26.4233 9.33223 26.8558 11.9648C26.9911 12.7887 26.9911 14.889 26.8558 15.7129C26.4233 18.3455 25.2897 20.6111 23.4649 22.4896C21.55 24.4608 19.2362 25.6825 16.5434 26.144C15.7238 26.2845 14.1104 26.336 13.2844 26.248C11.4344 26.0508 9.80558 25.5186 8.16423 24.5749C7.94344 24.4479 7.70612 24.344 7.63685 24.344C7.56759 24.344 6.45742 24.6677 5.16984 25.0632C3.88226 25.4588 2.8199 25.7735 2.80907 25.7627C2.79818 25.7518 3.08565 24.6858 3.44787 23.3938C3.90297 21.7701 4.0995 20.9875 4.08418 20.8597C4.07198 20.758 3.95231 20.4942 3.81822 20.2736C2.94268 18.8326 2.33247 17.0375 2.11538 15.2642C2.00015 14.3228 2.0365 12.7198 2.19378 11.8065C2.6344 9.24824 3.75614 7.03857 5.55372 5.18814C7.67717 3.00223 10.1713 1.79408 13.347 1.4131C13.4487 1.40091 14.0668 1.39811 14.7206 1.40692C15.6283 1.41912 16.0593 1.44884 16.5434 1.53262ZM8.77698 5.44739C8.13438 5.51596 7.99622 5.57218 7.7226 5.87625C6.52034 7.21241 5.78227 9.1151 5.86253 10.6715C5.91034 11.598 6.09171 12.2466 6.61671 13.3685C8.00393 16.3327 10.2617 18.9006 12.8187 20.4224C14.3446 21.3306 15.8182 21.8131 17.5499 21.9716C20.7595 22.2654 22.7571 20.9855 23.4697 18.1785C23.6066 17.6395 23.627 17.373 23.5435 17.2171C23.5144 17.1627 23.1637 16.9222 22.7642 16.6827C22.3648 16.4432 21.613 15.9761 21.0935 15.6446C20.5741 15.3132 20.0273 14.9853 19.8784 14.916C19.5506 14.7636 19.0803 14.7461 18.8058 14.8762C18.6135 14.9675 18.5699 15.0162 18.0426 15.731C17.6969 16.1996 16.8846 17.0811 16.7149 17.1718C16.5897 17.2387 16.4381 17.1828 15.8565 16.8555C14.596 16.1459 12.8656 14.7747 12.0166 13.8125C11.3791 13.0901 10.9167 12.3334 10.9167 12.0128C10.9167 11.9686 11.0951 11.7262 11.3132 11.474C12.0129 10.6645 12.2654 10.0001 12.1057 9.38787C11.9134 8.65003 10.6523 6.20608 10.2109 5.71566C9.97739 5.45636 9.51088 5.36905 8.77698 5.44739ZM9.75206 6.88226C9.89904 7.12087 10.261 7.79795 10.5566 8.38687C11.1952 9.65952 11.2166 9.7716 10.9167 10.2699C10.815 10.4389 10.5387 10.7871 10.3026 11.0437C9.8386 11.5482 9.79195 11.6567 9.86121 12.0701C10.1077 13.5406 11.8921 15.5393 14.4491 17.2087C15.6415 17.9872 16.3997 18.316 16.7928 18.225C17.3089 18.1054 18.0796 17.4232 18.821 16.4296L19.2897 15.8013L19.4628 15.8735C19.5579 15.9133 20.0574 16.2158 20.5727 16.5459C21.088 16.8759 21.7236 17.2728 21.9851 17.4279C22.2466 17.5829 22.4715 17.7188 22.4849 17.7298C22.5841 17.8117 22.0578 19.1945 21.8006 19.5282C21.4617 19.9679 21.0791 20.2861 20.6165 20.5134C19.9897 20.8214 19.5598 20.9171 18.6482 20.9515C15.9783 21.0522 13.4477 20.0143 11.1439 17.8737C9.5691 16.4105 7.9687 14.0825 7.23807 12.1923C6.71059 10.8275 6.80215 9.50538 7.52532 8.04511C7.74395 7.60374 8.30513 6.74395 8.47362 6.59224C8.57051 6.50497 8.75685 6.47071 9.21016 6.45678L9.48478 6.44833L9.75206 6.88226Z" fill="white"/>
</svg>
