<svg width="110" height="51" viewBox="0 0 110 51" fill="none" xmlns="http://www.w3.org/2000/svg">
<path d="M21.5289 50C19.3989 48.6579 1.76596 16.7457 1.00642 12.5342C0.799657 11.3878 5.65426 15.1371 5.77125 15.2606C12.7947 22.6784 18.4969 31.1935 25.8608 38.3699C26.3763 38.8723 32.8148 43.7831 32.8148 42.9788C32.8148 38.0392 30.6251 31.4987 29.5954 26.6854C28.2565 20.4276 20.8717 -9.84839 34.1026 7.08148C35.9666 9.46652 48.9569 37.4024 50.0909 37.4024C52.4663 37.4024 54.5537 21.6031 59.0858 13.5728C63.9152 5.01571 63.1617 26.6976 63.6574 29.996C64.6155 36.371 70.0914 17.7663 70.3539 17.1431C74.8843 6.39099 93.8264 20.3057 109 29.996" stroke="#CAFC92" stroke-width="2" stroke-linecap="round"/>
</svg>
