<svg width="49" height="68" viewBox="0 0 49 68" fill="none" xmlns="http://www.w3.org/2000/svg">
<path d="M15.445 13.2868C12.2119 16.0168 8.13359 18.4739 5.78966 21.8007C4.00899 24.3279 3.94309 27.0325 3.86329 29.8859C3.77573 33.0161 3.68043 36.2075 4.23916 39.3154C4.70405 41.9013 5.78476 45.1557 7.78651 47.2253C9.69289 49.1962 12.3458 50.5423 15.1161 51.5114C17.626 52.3893 20.3706 52.9178 23.08 53.1479C25.474 53.3512 27.7005 52.9105 29.9633 52.2712C34.482 50.9946 38.6532 49.0563 42.0618 46.2609C46.0441 42.995 46.8471 38.8804 47.4533 34.4448C47.8067 31.8589 48.0423 29.2748 47.9936 26.6713C47.8492 18.9452 40.4244 13.3155 32.5709 10.1697C30.0709 9.16822 26.896 8.81934 24.1372 8.98123C21.2753 9.14915 19.205 9.92808 16.7606 11.1243C10.1195 14.3742 2.8681 18.9765 1.8312 25.7653C0.617474 33.7118 6.43342 41.88 13.1545 47.1571C16.3683 49.6804 20.6096 52.3966 24.8889 53.5083C28.9448 54.562 34.2259 55.1304 37.6923 52.7485C41.9596 49.8163 43.5563 45.6684 44.505 41.2831C45.7617 35.4742 46.5254 29.5453 46.5254 23.6418C46.5254 19.936 46.8332 15.6343 45.1628 12.1179C43.3479 8.29722 39.7847 4.1154 35.1786 2.37668C32.0095 1.18042 28.9668 0.601113 25.5232 1.30515C21.7 2.0868 17.6575 4.45474 14.7167 6.5654C10.5355 9.5664 6.62956 13.289 4.09821 17.3976C0.689357 22.9305 0.689835 29.5247 1.32611 35.5553C1.60477 38.1964 1.89654 40.7981 3.06455 43.2898C3.8603 44.9873 4.95848 46.6435 6.03633 48.2286C8.21465 51.4321 10.4521 54.7297 13.0605 57.7068C16.1364 61.2174 21.1179 64.5093 26.1105 65.8894C28.8548 66.648 31.917 66.7875 34.7792 66.961C36.9744 67.094 38.3588 66.881 40.3939 66.4154" stroke="#CAFC92" stroke-width="2" stroke-linecap="round"/>
</svg>
