<svg width="249" height="34" viewBox="0 0 249 34" fill="none" xmlns="http://www.w3.org/2000/svg">
<path d="M45.2202 11.1976C43.1171 11.7565 41.4622 12.8044 39.7728 14.6907C38.0489 16.6119 37.4628 17.6947 36.9801 20.2097C36.1872 24.0172 37.5318 28.0342 40.4623 30.8287C42.9447 33.169 44.8065 33.9026 48.3232 33.9375C50.84 33.9375 51.5295 33.7978 53.2189 32.9594C58.8042 30.165 61.3211 23.109 58.7008 17.5201C56.3219 12.3853 50.5987 9.6956 45.2202 11.1976ZM51.9088 12.1058C54.2877 13.014 56.5287 15.0051 57.8044 17.3804C58.7353 19.092 58.8387 19.581 58.8387 22.4104C58.8387 25.2398 58.7353 25.7288 57.8044 27.4404C54.0464 34.3217 45.4615 35.4046 40.29 29.5712C38.4282 27.4753 37.6352 25.3446 37.6352 22.4104C37.6352 19.4762 38.4282 17.3454 40.29 15.2496C43.4619 11.6866 47.7026 10.5339 51.9088 12.1058Z" fill="white"/>
<path d="M132.348 11.0593C129.108 11.8976 126.28 14.203 124.626 17.4167C123.798 19.0235 123.66 19.6872 123.66 22.2371C123.66 24.7172 123.798 25.5206 124.557 27.1623C125.729 29.6773 127.866 31.843 130.349 33.0307C133.107 34.3231 136.968 34.3231 139.727 33.0307C146.622 29.7472 148.725 20.9796 144.071 15.1811C141.347 11.7928 136.382 10.0463 132.348 11.0593ZM138.244 11.9325C140.795 12.701 143.105 14.727 144.519 17.3817C145.588 19.4077 145.691 19.8967 145.691 22.4117C145.691 24.7521 145.553 25.4856 144.76 27.0575C143.588 29.328 141.554 31.354 139.416 32.4369C137.141 33.5546 132.969 33.5896 130.728 32.4718C124.419 29.328 122.488 21.7481 126.453 15.9146C128.935 12.2469 133.796 10.6052 138.244 11.9325Z" fill="white"/>
<path d="M0.057893 11.232L0 33.7773L0.747438 33.7773V25.0297H3.67801C5.40187 25.0297 6.60857 24.8899 6.60857 24.6804C6.60857 24.4708 5.40187 24.331 3.67801 24.331H0.747438V18.0435V11.756H4.19517C6.2638 11.756 7.64289 11.6163 7.64289 11.4067C7.64289 11.0574 0.057893 10.8827 0.057893 11.232Z" fill="white"/>
<path d="M10.7461 22.4112V33.7637H14.711C17.1244 33.7637 18.6759 33.6239 18.6759 33.4144C18.6759 33.2048 17.2968 33.0651 15.2281 33.0651H11.7804V29.048V25.031H14.711C16.4348 25.031 17.6415 24.8913 17.6415 24.6817C17.6415 24.4721 16.4348 24.3324 14.711 24.3324H11.7804V18.0449V11.7573H15.2281C17.2968 11.7573 18.6759 11.6176 18.6759 11.408C18.6759 11.1984 17.1244 11.0587 14.711 11.0587H10.7461V22.4112Z" fill="white"/>
<path d="M21.7812 22.3763V33.7637H22.6432C24.2636 33.7637 27.1252 32.9952 28.5388 32.1569C35.1584 28.3145 35.5722 17.7305 29.2973 13.1196C27.7803 12.0368 26.4357 11.5827 23.6085 11.1984L21.7812 10.9539V22.3763ZM27.5734 13.0498C31.2625 14.8312 33.7793 20.001 32.9174 24.1228C32.3658 26.7426 31.6073 28.2446 29.9868 29.9562C28.4009 31.598 26.3667 32.611 24.2636 32.7856L22.7811 32.8904V22.4112C22.8156 16.6476 22.8156 11.8621 22.8156 11.8272C22.8156 11.4779 25.9875 12.2813 27.5734 13.0498Z" fill="white"/>
<path d="M63.498 22.3763C63.498 30.4453 63.6015 33.7986 63.8773 33.6938C64.1186 33.6239 64.2565 32.2966 64.2565 30.1658C64.291 28.3145 64.3945 26.7775 64.5324 26.7775C64.7047 26.7775 66.2907 28.3494 68.0835 30.2706C69.8763 32.1918 71.5312 33.7637 71.7726 33.7637C72.4966 33.7637 72.0139 33.1699 68.4283 29.4672C66.4631 27.4761 64.8771 25.7645 64.8771 25.6598C64.8771 25.555 65.4977 25.3803 66.2217 25.2406C66.9802 25.1358 68.2559 24.507 69.0489 23.9132C74.2894 19.8263 71.945 11.9669 65.2564 11.1635L63.498 10.9539V22.3763ZM66.6355 12.1416C68.0146 12.6306 69.8763 14.3073 70.6004 15.7045C71.2554 16.9271 71.2899 18.9531 70.7727 20.5948C70.2211 22.2016 68.0146 24.2276 66.4631 24.542C64.1531 24.9611 64.1531 25.031 64.1876 18.2544C64.2221 14.9011 64.3255 12.0717 64.4634 11.9669C64.7392 11.6525 65.3253 11.7224 66.6355 12.1416Z" fill="white"/>
<path d="M75.9082 22.4112V33.7637H79.6662C81.8383 33.7637 83.5277 33.6239 83.6656 33.4144C83.8035 33.2048 82.5623 33.0651 80.2524 33.0651H76.5978V29.048V25.031H79.5283C81.2522 25.031 82.4589 24.8913 82.4589 24.6817C82.4589 24.4721 81.2522 24.3324 79.5283 24.3324H76.5978V18.0449V11.7573H80.0455C82.1141 11.7573 83.4932 11.6176 83.4932 11.408C83.4932 11.1984 82.0107 11.0587 79.7007 11.0587H75.9082V22.4112Z" fill="white"/>
<path d="M86.8755 22.4114C86.9444 29.677 87.0823 33.729 87.2892 33.5892C87.4961 33.4495 87.5995 29.677 87.4961 23.4244C87.4271 17.9752 87.4616 13.5041 87.5995 13.539C87.7029 13.539 90.9783 17.5561 94.8742 22.4464C98.7701 27.3367 102.425 31.8776 102.976 32.5763L104.011 33.7988L103.838 22.3416L103.666 10.8843L102.976 11.4594C102.942 17.0134 103.356 30.9694 103.183 30.9694C103.011 30.9694 99.2873 26.4983 94.9087 21.0142C90.4956 15.5301 86.8755 11.059 86.841 11.059C86.8065 11.059 86.8065 16.1588 86.8755 22.4114Z" fill="white"/>
<path d="M108.66 22.4112C108.66 29.7466 108.798 33.7637 109.005 33.7637C109.212 33.7637 109.35 31.4233 109.35 27.4761C109.35 24.018 109.419 21.1886 109.453 21.1886C109.591 21.1886 116.176 28.0001 119.555 31.6329C120.727 32.8555 121.83 33.7986 122.072 33.7287C122.348 33.6239 119.831 30.7247 116.28 26.9522C112.866 23.2845 110.039 20.2106 110.039 20.1058C110.039 20.001 112.211 17.975 114.901 15.6346C117.555 13.2594 119.658 11.2334 119.555 11.1286C119.314 10.919 117.969 11.9669 113.315 16.1237L109.522 19.477L109.419 15.2853C109.384 12.8402 109.177 11.0587 109.005 11.0587C108.798 11.0587 108.66 15.3203 108.66 22.4112Z" fill="white"/>
<path d="M217.812 1.056C217.812 1.78954 219.054 4.06003 219.916 4.79358L220.743 5.49219L220.191 4.79358C219.881 4.40934 219.226 3.29156 218.743 2.34843C218.226 1.37038 217.847 0.811486 217.812 1.056Z" fill="white"/>
<path d="M225.159 5.14311C225.262 5.52735 225.469 6.6102 225.607 7.58826C225.745 8.53139 225.986 9.6841 226.124 10.1033C226.296 10.5574 226.331 10.9067 226.262 10.9067C226.159 10.9067 225.297 10.1033 224.297 9.12521C222.194 7.0643 219.746 5.84173 217.298 5.56228C215.643 5.3527 215.677 5.38763 218.332 6.29583C221.263 7.34375 223.366 8.53139 224.642 9.92862L225.434 10.8019L223.262 10.9765C219.194 11.3258 215.505 13.9806 213.781 17.788C213.092 19.325 212.885 20.2681 212.885 22.4338C212.885 27.0796 215.195 30.8172 219.263 32.913C221.125 33.8212 221.711 33.9609 224.331 33.9609C226.779 33.9609 227.641 33.7863 229.193 33.0527C232.916 31.3062 235.743 27.0447 235.743 23.2023V21.5605L237.674 23.5167L239.605 25.4728L239.57 29.5597C239.536 33.0527 239.605 33.6116 240.053 33.6116C240.536 33.6116 240.604 33.1226 240.501 30.1186C240.432 28.1974 240.432 26.6255 240.501 26.6255C240.536 26.6255 242.087 28.1974 243.88 30.1186C245.707 32.0397 247.431 33.6116 247.707 33.6116C247.983 33.6116 246.604 31.8651 244.604 29.6994L240.984 25.7872L242.604 25.2283C246.569 23.866 248.672 20.4777 247.81 16.8449C247.052 13.7011 244.052 11.256 240.949 11.256H239.467L239.605 17.8928C239.674 21.5605 239.639 24.5296 239.536 24.5296C239.432 24.5296 238.57 23.6913 237.605 22.6783C236.433 21.4557 235.709 20.338 235.433 19.29C234.605 16.1812 232.192 13.4217 228.813 11.6402C227.882 11.1861 227.503 10.5923 226.538 7.93757C225.434 5.03832 224.71 3.5363 225.159 5.14311ZM230.744 16.1812L235.123 20.7571L234.985 23.0626C234.605 29.874 228.262 34.7643 221.952 33.1226C216.884 31.7952 213.712 27.7433 213.678 22.5386C213.678 19.325 214.643 16.9497 216.953 14.6792C218.987 12.6532 221.366 11.6402 224.228 11.6402L226.331 11.6053L230.744 16.1812ZM243.673 12.6532C246.293 14.0155 247.776 17.1593 247.086 19.814C246.879 20.5825 246.328 21.7352 245.845 22.3989C244.88 23.6564 242.363 24.9837 241.225 24.8091C240.536 24.7043 240.536 24.4598 240.467 18.312L240.398 11.9546H241.363C241.88 11.9546 242.914 12.269 243.673 12.6532ZM232.261 15.3079C233.744 16.9497 234.985 19.29 234.399 19.29C233.778 19.29 228.503 13.2121 228.503 12.4786C228.503 11.9546 230.778 13.6662 232.261 15.3079Z" fill="white"/>
<path d="M200.226 11.2199C197.33 12.1281 194.468 14.6082 192.951 17.6122C191.814 19.743 191.779 24.6682 192.883 27.0435C193.882 29.2442 196.192 31.7242 198.33 32.842C199.847 33.6454 200.468 33.7852 203.329 33.7852C206.777 33.7852 209.535 32.9818 209.535 32.0037C209.535 31.6893 208.949 31.829 207.604 32.4578C205.915 33.2263 205.329 33.3311 202.846 33.1913C200.571 33.0865 199.675 32.842 198.433 32.1085C196.468 30.9558 194.503 28.7551 193.572 26.6593C192.503 24.3539 192.538 20.4766 193.641 17.9615C194.675 15.6561 197.537 12.9315 199.743 12.1631C202.226 11.3247 205.536 11.4295 207.742 12.4774C209.087 13.1062 209.535 13.211 209.535 12.8267C209.535 12.0233 205.984 10.9055 203.398 10.9405C202.122 10.9405 200.709 11.0802 200.226 11.2199Z" fill="white"/>
<path d="M166.096 22.4005V33.6133H167.751C171.647 33.6133 175.232 31.1332 176.956 27.2908C177.818 25.3347 177.887 24.8457 177.749 21.9464C177.646 19.8157 177.404 18.3835 176.991 17.5452C175.094 13.8774 172.026 11.7117 168.199 11.3624L166.096 11.1529V22.4005ZM171.578 12.9692C177.508 16.0431 178.956 24.3567 174.508 29.736C173.164 31.3777 170.888 32.6003 168.681 32.8099L166.785 33.0195V22.4355V11.8515L168.475 12.0611C169.406 12.1658 170.819 12.585 171.578 12.9692Z" fill="white"/>
<path d="M181.643 22.4355V33.6133H185.573C187.986 33.6133 189.538 33.4736 189.538 33.264C189.538 33.0544 188.159 32.9147 186.09 32.9147H182.642V29.0723V25.2299H185.573C187.297 25.2299 188.504 25.0902 188.504 24.8806C188.504 24.671 187.297 24.5313 185.573 24.5313H182.642V18.2438V11.9563H186.09C188.159 11.9563 189.538 11.8165 189.538 11.607C189.538 11.3974 187.986 11.2576 185.573 11.2576H181.643V22.4355Z" fill="white"/>
</svg>
